<svg version="1.1" id="Layer_1" xmlns="http://www.w3.org/2000/svg" x="0px" y="0px"
	 width="100%" viewBox="0 0 465 479" enable-background="new 0 0 465 479" xml:space="preserve">
<path fill="#FFFFFD" opacity="1.000000" stroke="none" 
	d="
M1.000000,167.000000 
	C1.000000,111.333336 1.000000,56.166668 1.000000,1.000000 
	C156.000000,1.000000 311.000000,1.000000 466.000000,1.000000 
	C466.000000,160.666672 466.000000,320.333344 466.000000,480.000000 
	C311.000000,480.000000 156.000000,480.000000 1.000000,480.000000 
	C1.000000,375.833344 1.000000,271.666656 1.000000,167.000000 
M74.888840,171.981689 
	C74.888840,171.981689 74.825203,171.832397 75.483459,171.899872 
	C76.002190,171.309677 76.520920,170.719482 77.269211,169.857468 
	C77.269211,169.857468 77.605324,169.740814 78.369858,169.900024 
	C79.918144,168.609833 81.466431,167.319656 83.001328,165.997696 
	C83.001328,165.997696 83.029640,166.018082 83.784874,166.050293 
	C85.524841,164.705765 87.264809,163.361237 89.343651,161.503326 
	C90.423958,160.911331 91.504257,160.319336 93.371086,159.896683 
	C95.413551,158.925415 97.489075,158.017517 99.492935,156.972244 
	C110.018898,151.481644 120.371300,145.627655 131.094315,140.556000 
	C138.521027,137.043411 143.183792,132.107773 145.074219,123.946960 
	C149.675919,104.081871 159.823044,89.086769 181.422302,84.857552 
	C182.049500,84.734741 182.523392,83.828918 183.841125,83.100983 
	C184.897583,83.080292 185.954056,83.059601 187.591522,83.597908 
	C191.054413,83.430328 194.517319,83.262749 198.654099,83.036041 
	C199.096603,83.114510 199.539124,83.192978 200.365112,83.846443 
	C206.374786,86.146400 212.384460,88.446365 218.730179,90.813683 
	C218.730179,90.813683 218.986908,91.040726 219.047180,91.727013 
	C222.360886,94.486649 225.674576,97.246284 229.423920,100.246780 
	C229.697784,100.457802 229.877914,100.730690 229.956909,101.798706 
	C232.082809,106.337540 234.153946,110.903664 236.388382,115.388428 
	C236.761688,116.137726 237.844223,116.533669 238.854935,117.700157 
	C238.897339,118.135544 238.939743,118.570938 238.423706,119.570358 
	C238.449127,121.685455 238.551147,123.802925 238.485458,125.915192 
	C238.296936,131.977142 238.414093,138.083023 237.674957,144.080933 
	C237.208649,147.864960 235.422195,151.486298 234.128677,154.986359 
	C234.128677,154.986359 234.243423,155.178162 233.535934,155.309174 
	C232.437180,157.330429 231.338425,159.351685 230.021759,161.930283 
	C229.317932,162.605499 228.614105,163.280716 227.221069,164.013992 
	C220.206406,169.030716 213.509689,174.589035 204.836899,176.728317 
	C204.083679,176.914124 203.564484,178.048599 202.312805,178.953568 
	C201.875534,178.971283 201.438278,178.988983 200.445999,178.435898 
	C198.977402,178.318436 197.429535,177.838287 196.052368,178.139252 
	C181.263687,181.371155 169.458862,174.605652 158.245117,166.577042 
	C151.725647,161.909363 143.439011,163.514420 139.620056,171.300858 
	C139.341934,171.509415 139.063812,171.717957 138.087631,171.934174 
	C135.369873,174.577347 132.652100,177.220520 129.625259,180.457489 
	C126.387863,183.623611 123.150467,186.789734 119.224251,190.009827 
	C117.569565,192.142517 115.914886,194.275223 114.062920,196.902130 
	C113.678108,197.252853 113.293289,197.603577 112.209381,198.014221 
	C111.205360,199.448410 110.201340,200.882599 109.029701,202.833389 
	C108.650162,203.204880 108.270622,203.576370 107.202736,204.022858 
	C106.108917,205.632584 105.015091,207.242310 103.743690,209.325134 
	C103.501511,209.553207 103.259331,209.781281 102.316078,210.088593 
	C101.949547,210.841415 101.583015,211.594254 101.112419,212.698593 
	C101.112419,212.698593 100.851837,212.956451 100.158890,213.045822 
	C99.510391,214.141556 98.861885,215.237305 98.105194,216.690643 
	C98.105194,216.690643 97.838028,216.951813 97.146980,217.041336 
	C96.500877,218.139313 95.854774,219.237289 95.122414,220.690063 
	C95.122414,220.690063 94.879967,220.963104 94.185844,221.047668 
	C93.455070,222.360367 92.724304,223.673065 92.000916,225.000519 
	C92.000916,225.000519 91.985794,224.994797 91.301033,225.063339 
	C90.270271,226.775925 89.239510,228.488495 88.030815,230.178635 
	C88.030815,230.178635 88.209435,230.163651 87.627487,230.336533 
	C87.508308,230.702713 87.389130,231.068878 87.167671,231.935532 
	C86.882225,232.346542 86.596786,232.757553 85.699249,233.335327 
	C85.566574,233.714737 85.433899,234.094147 85.188026,234.966980 
	C84.913330,235.383713 84.638634,235.800446 83.618233,236.155655 
	C81.141747,240.863281 78.665268,245.570923 76.101944,250.657959 
	C76.101944,250.657959 75.853020,250.957138 75.184608,251.078171 
	C74.141159,252.531952 72.762268,253.849152 72.106110,255.460632 
	C65.516670,271.643646 58.783279,287.777649 52.711781,304.155792 
	C51.027287,308.699768 51.406036,314.008667 50.890316,319.627136 
	C50.794312,320.055206 50.698307,320.483307 49.923450,321.156921 
	C49.620739,321.715729 49.118725,322.249390 49.044544,322.837036 
	C47.318810,336.508820 46.723408,350.235413 50.588940,363.590363 
	C51.974152,368.376099 55.419697,372.565460 58.325214,377.381744 
	C58.606186,377.830841 58.887157,378.279968 59.109718,379.457916 
	C62.725121,386.482697 69.290474,388.237610 76.350662,388.929199 
	C77.209106,389.013275 78.176826,387.981750 79.708504,387.250824 
	C80.140976,387.241119 80.573456,387.231415 81.498024,387.674377 
	C83.026894,386.890778 84.555763,386.107147 86.557205,385.040863 
	C86.910500,384.946808 87.263794,384.852753 88.314438,384.878296 
	C88.886215,384.281189 89.457993,383.684052 90.386177,382.704468 
	C90.662689,382.493835 90.939209,382.283203 91.908020,382.065521 
	C92.942863,381.051178 93.977715,380.036804 95.000160,378.998779 
	C95.000160,378.998779 95.023140,379.013184 95.668381,378.971710 
	C96.121628,378.329559 96.574883,377.687439 96.999817,377.000061 
	C96.999817,377.000061 97.045105,377.028137 97.744232,376.976288 
	C99.166916,374.992432 100.589600,373.008606 101.998016,371.000122 
	C101.998016,371.000122 102.024582,371.009888 102.705956,370.941650 
	C105.068703,366.904419 107.431442,362.867188 109.938255,359.026733 
	C109.938255,359.026733 109.778839,358.839905 110.476974,358.702515 
	C111.560860,356.720581 112.644745,354.738678 114.015968,352.885132 
	C114.015968,352.885132 113.721901,352.777039 114.423523,352.704681 
	C116.979057,348.848969 119.534592,344.993225 122.052551,341.047058 
	C122.052551,341.047058 122.144051,341.082031 122.834396,340.984924 
	C123.496834,339.894501 124.159279,338.804108 124.984207,337.190552 
	C125.359695,336.811554 125.735184,336.432526 126.804070,335.976410 
	C127.485138,334.900330 128.166199,333.824280 128.974747,332.367065 
	C128.974747,332.367065 129.256927,332.080872 129.941666,332.055267 
	C133.548462,327.909454 137.155258,323.763641 140.947403,319.247101 
	C141.119293,319.014008 141.346222,318.864380 142.264404,318.711487 
	C142.438278,318.345947 142.612167,317.980377 142.989334,317.055908 
	C143.696823,316.389374 144.404312,315.722809 145.853745,315.050781 
	C146.826599,313.910126 147.799454,312.769501 149.073486,311.119171 
	C149.947479,310.350372 150.821472,309.581604 152.423340,308.890808 
	C154.631104,306.624573 156.838852,304.358368 159.327225,301.563782 
	C159.953094,301.067413 160.578964,300.571075 161.903229,300.068634 
	C163.613098,298.415131 165.322983,296.761658 167.364822,294.699738 
	C167.781006,294.383148 168.197189,294.066559 169.361084,293.857605 
	C174.574753,289.573151 179.788406,285.288696 185.271164,280.565491 
	C185.567154,280.404510 185.863144,280.243530 186.837112,280.076141 
	C187.569931,279.403748 188.302734,278.731354 189.004089,277.999634 
	C189.004089,277.999634 189.057297,278.040741 189.799408,278.048218 
	C195.011078,276.580627 199.245224,273.792236 202.000610,268.998779 
	C202.000610,268.998779 202.014633,269.008759 202.708008,269.050720 
	C203.483154,268.401550 204.258286,267.752380 205.302109,266.867004 
	C205.302109,266.867004 205.649506,266.781586 206.337311,266.880310 
	C206.899323,266.285889 207.461349,265.691498 208.334610,264.879517 
	C208.334610,264.879517 208.708740,264.814545 209.486465,264.892731 
	C210.922470,263.813110 212.358459,262.733459 214.145279,261.275696 
	C214.622757,261.091736 215.100220,260.907776 216.385391,260.847839 
	C221.778091,258.034393 227.178635,255.235611 232.543152,252.369385 
	C232.850204,252.205338 232.862976,251.490524 233.289948,250.816528 
	C233.289948,250.816528 233.638321,250.772568 234.440918,250.887878 
	C237.974274,248.974426 241.507629,247.060989 245.413773,244.941528 
	C245.413773,244.941528 245.836914,244.893021 246.643036,244.990204 
	C249.256348,244.100815 251.903259,243.298508 254.476562,242.305466 
	C261.811279,239.474960 269.140228,236.626404 276.423309,233.666550 
	C280.675110,231.938614 284.834778,229.983932 289.295563,227.870911 
	C289.295563,227.870911 289.649414,227.770920 290.369568,227.890808 
	C291.256744,226.961655 292.143951,226.032486 293.240143,224.836472 
	C293.240143,224.836472 293.557159,224.716492 294.358124,224.838730 
	C295.162018,223.439316 295.965942,222.039902 296.869873,220.087997 
	C297.032379,219.752838 297.194885,219.417679 298.041016,218.931915 
	C300.597168,212.140335 303.153290,205.348740 305.793030,198.237762 
	C305.793030,198.237762 306.032501,198.010452 306.737183,197.945251 
	C307.497467,196.639069 308.257782,195.332886 308.998474,194.001053 
	C308.998474,194.001053 309.026794,194.015121 309.712433,193.960968 
	C311.815277,191.660431 313.918121,189.359879 316.259674,186.819855 
	C316.259674,186.819855 316.587555,186.737228 317.357758,186.859818 
	C323.186157,184.376495 328.818756,180.724472 334.892700,179.706787 
	C342.420166,178.445602 350.395691,178.673492 358.020935,179.578644 
	C363.543488,180.234192 368.811005,183.038483 374.749176,185.099731 
	C375.500305,185.730988 376.251434,186.362259 377.052490,187.696259 
	C380.647888,191.480255 384.243286,195.264236 388.253937,199.477325 
	C388.583679,200.190262 388.913422,200.903214 389.123779,202.432755 
	C391.020569,207.626831 392.917389,212.820908 394.963165,218.672165 
	C394.955750,219.119720 394.948303,219.567276 394.388092,220.588348 
	C394.569031,223.720245 394.750000,226.852142 394.999634,230.654709 
	C394.932861,231.097717 394.866089,231.540710 394.207428,232.364258 
	C393.515717,233.664917 392.453278,234.896164 392.194519,236.277908 
	C390.861176,243.397781 387.762115,249.515579 382.823334,254.836517 
	C381.207642,256.577209 380.275085,258.951996 378.999786,261.001221 
	C378.999786,261.001221 379.034058,261.031982 378.295227,260.986359 
	C377.267334,261.446350 376.103271,261.728241 375.232605,262.393890 
	C366.666412,268.942749 357.079163,272.284760 346.240997,272.079620 
	C343.834015,272.034027 341.415741,272.583649 338.349609,272.918060 
	C337.928436,272.814026 337.507233,272.710022 336.883484,271.954224 
	C331.604279,269.958496 326.325104,267.962769 320.998505,265.997681 
	C320.998505,265.997681 321.030273,265.950836 320.936127,265.250793 
	C317.565857,263.655060 314.341919,261.301056 310.795776,260.616638 
	C302.653168,259.045197 294.835602,259.924713 288.658234,267.114380 
	C288.658234,267.114380 288.279938,267.169525 287.727570,267.173462 
	C287.482513,267.429474 287.237457,267.685486 286.727142,268.173462 
	C286.727142,268.173462 286.382263,268.245911 285.695862,268.123718 
	C285.114258,268.694489 284.532654,269.265259 283.680054,270.097443 
	C283.680054,270.097443 283.318573,270.202881 282.557861,270.070648 
	C281.363861,271.020172 280.169830,271.969727 278.707733,273.154755 
	C278.707733,273.154755 278.359131,273.231018 277.613831,273.115967 
	C276.064392,274.374634 274.514954,275.633301 272.687775,277.130737 
	C272.687775,277.130737 272.329681,277.207581 271.582062,277.104279 
	C270.056946,278.406067 268.531830,279.707855 266.679657,281.425507 
	C266.225098,281.681824 265.770538,281.938141 264.617035,282.123932 
	C264.076019,282.743835 263.535004,283.363739 263.000549,284.001221 
	C263.000549,284.001221 262.983704,283.992828 262.262085,283.964844 
	C260.827850,285.267914 259.393616,286.570984 257.733459,288.140656 
	C257.733459,288.140656 257.403809,288.256531 256.668182,288.140472 
	C255.440704,289.416504 254.213211,290.692505 252.632156,292.516937 
	C250.770599,294.020905 248.909058,295.524902 246.397583,297.040039 
	C245.922653,297.669006 245.447723,298.297943 244.730988,299.175598 
	C244.730988,299.175598 244.405167,299.294586 243.671539,299.156799 
	C243.198700,299.283203 242.584259,299.261383 242.273865,299.557831 
	C235.584991,305.946289 228.872879,312.313080 222.334412,318.853180 
	C221.422974,319.764832 221.398376,321.563141 221.000610,322.998199 
	C221.000610,322.998199 220.949112,322.967255 220.249741,323.018555 
	C219.225006,324.433441 218.200287,325.848358 216.996384,327.791473 
	C216.610504,328.172943 216.224625,328.554382 215.396149,329.120453 
	C215.121750,329.329285 214.979904,329.606049 215.004288,329.993958 
	C215.004288,329.993958 214.954834,329.971069 214.253403,330.044312 
	C213.622192,331.126160 212.990997,332.208038 212.265747,333.267181 
	C212.265747,333.267181 212.302368,333.356750 211.578217,333.191681 
	C209.807297,335.871094 208.036392,338.550537 206.276108,341.102966 
	C206.276108,341.102966 206.237167,341.222321 205.649200,341.344879 
	C205.535416,341.704895 205.421631,342.064911 205.210007,342.746765 
	C205.210007,342.746765 204.976196,342.988678 204.284012,343.079742 
	C203.935760,343.833679 203.587509,344.587585 203.059235,345.898865 
	C202.828217,346.209808 202.597214,346.520782 201.861526,346.994995 
	C201.637939,347.437439 201.414337,347.879913 201.083237,348.668945 
	C201.083237,348.668945 200.841690,348.939789 200.157043,349.039490 
	C199.174667,350.794159 198.192307,352.548828 197.112549,354.665131 
	C197.112549,354.665131 196.876938,354.956299 196.194778,355.069122 
	C195.529129,356.474091 194.863480,357.879059 194.083176,359.650360 
	C194.083176,359.650360 193.835403,359.943512 193.160873,360.078064 
	C192.517487,361.493042 191.874084,362.907990 191.157837,364.682770 
	C191.157837,364.682770 190.946838,364.983185 190.239365,365.059296 
	C187.895309,369.806274 185.551254,374.553223 183.114685,379.859436 
	C182.964005,380.204132 182.813309,380.548798 181.995239,381.031708 
	C181.712265,381.201050 181.280930,381.302307 181.167496,381.549469 
	C173.550980,398.141815 165.197174,414.508606 164.529831,433.311218 
	C164.497482,434.222626 165.845413,435.183075 166.778168,436.730286 
	C166.811325,437.161316 166.844482,437.592377 166.398605,438.498566 
	C167.208374,440.015991 168.018143,441.533417 169.049591,443.416016 
	C169.049591,443.416016 169.128357,443.835907 169.016693,444.599823 
	C170.295532,446.096313 171.574371,447.592804 172.944687,449.048706 
	C172.944687,449.048706 172.906601,449.141235 172.926941,449.858246 
	C175.847397,456.033112 182.070267,457.764893 187.574005,459.770477 
	C204.473541,465.928864 222.142471,465.895813 239.823761,464.908173 
	C240.609482,464.864288 241.346191,463.943298 242.907974,463.248718 
	C244.278442,463.198395 245.648911,463.148071 247.603699,463.633514 
	C254.600418,463.037506 261.602570,462.492828 268.584076,461.753235 
	C269.176483,461.690491 269.631012,460.325928 270.733856,459.317444 
	C271.154388,459.295654 271.574890,459.273834 272.590637,459.714050 
	C277.392151,458.910553 282.309845,458.519928 286.968719,457.209412 
	C294.463226,455.101288 301.832306,452.510712 309.154266,449.848602 
	C311.286682,449.073303 313.078278,447.360535 315.334534,445.849915 
	C315.334534,445.849915 315.709320,445.769531 316.517578,445.926117 
	C319.386108,444.425964 322.254639,442.925781 325.612122,441.113739 
	C325.983826,441.012909 326.355499,440.912109 327.500946,440.905273 
	C332.011322,438.293701 336.521667,435.682159 341.307037,432.844482 
	C341.307037,432.844482 341.651917,432.756104 342.406158,432.875977 
	C346.790497,430.440399 351.277863,428.166962 355.503906,425.482239 
	C357.006104,424.527924 357.873322,422.574127 359.284271,420.835449 
	C359.284271,420.835449 359.617218,420.726990 360.358307,420.866852 
	C364.907684,416.914825 369.457092,412.962830 374.000000,409.000000 
	C374.000000,409.000000 374.011688,409.006317 374.490356,408.899597 
	C374.805969,408.738739 374.994354,408.483856 375.358154,407.614777 
	C375.978912,407.104553 376.599640,406.594330 377.916138,406.070374 
	C383.881561,400.477173 390.108917,395.131622 395.716736,389.200317 
	C399.225403,385.489197 401.801117,380.896027 404.961121,376.185608 
	C405.310883,375.792206 405.660675,375.398804 406.683533,374.931366 
	C407.034332,374.208954 407.385132,373.486542 407.991119,372.886108 
	C407.991119,372.886108 407.736298,372.776886 408.445557,372.693848 
	C409.219360,371.352386 409.993134,370.010956 410.859924,368.318115 
	C410.859924,368.318115 411.081024,368.029572 411.756958,367.912811 
	C412.089355,367.160889 412.421753,366.408966 412.848450,365.307739 
	C412.848450,365.307739 413.070038,365.021729 413.742950,364.909058 
	C414.090210,364.167938 414.437469,363.426819 414.885986,362.331757 
	C414.885986,362.331757 415.114624,362.043152 415.783844,361.920135 
	C416.113190,361.170288 416.442535,360.420441 416.863190,359.319641 
	C416.863190,359.319641 417.088470,359.035461 417.786987,358.953369 
	C419.431335,355.842407 421.075714,352.731445 422.842529,349.082001 
	C423.003571,348.752380 423.164581,348.422791 423.944000,347.935059 
	C424.242615,347.212311 424.541199,346.489563 424.916351,345.378754 
	C424.916351,345.378754 425.131470,345.046814 425.800964,344.919159 
	C426.828827,343.465179 428.191254,342.142883 428.824768,340.533630 
	C431.176910,334.559021 433.289093,328.489899 435.567413,321.939880 
	C435.723663,321.631012 435.879944,321.322144 436.754059,320.899323 
	C439.296265,313.330383 442.228699,305.864014 444.254059,298.159210 
	C445.802429,292.268890 446.203278,286.076904 447.081177,279.368042 
	C447.167206,278.943878 447.253235,278.519684 448.019714,277.855377 
	C448.396057,273.568329 448.772400,269.281311 449.094513,264.264740 
	C449.196320,263.543915 449.298096,262.823120 450.101074,261.801422 
	C450.363434,261.393311 450.842651,260.992462 450.856537,260.576050 
	C451.236053,249.197647 451.789124,237.817413 451.776184,226.438080 
	C451.772217,222.925705 450.203918,219.415100 449.189148,215.284134 
	C449.190826,214.858658 449.192535,214.433197 449.681488,213.393661 
	C448.916931,209.561600 448.152344,205.729523 447.190125,201.274643 
	C447.167847,200.841278 447.145599,200.407928 447.631012,199.418335 
	C447.681519,197.939758 448.133392,196.336990 447.720306,195.001846 
	C443.661346,181.882965 439.639496,168.746429 435.177673,155.762451 
	C433.961273,152.222794 431.298126,149.180283 429.030609,145.425186 
	C428.931335,145.070587 428.832092,144.715988 428.906097,143.594650 
	C427.706970,141.698318 426.507874,139.801987 424.933685,137.351120 
	C424.241486,135.964523 423.549286,134.577942 422.968384,132.420441 
	C420.019012,127.932755 417.069641,123.445061 413.868225,118.688286 
	C413.868225,118.688286 413.747742,118.339790 413.871338,117.631020 
	C413.159027,116.825859 412.446686,116.020691 411.995636,115.125099 
	C411.995636,115.125099 411.734772,115.230156 411.859344,114.569191 
	C411.282166,114.020592 410.704956,113.472000 410.031189,112.962631 
	C410.031189,112.962631 410.087311,112.874809 410.079865,112.182465 
	C409.127716,111.095215 408.175598,110.007973 406.969360,108.630577 
	C406.969360,108.630577 406.848297,108.264366 406.816071,107.725960 
	C406.399719,107.428497 405.983368,107.131035 405.180756,106.415817 
	C405.030273,106.068947 404.879822,105.722084 404.844543,104.635399 
	C399.600586,98.741859 394.356598,92.848320 388.666504,86.575180 
	C388.026764,85.841843 387.386993,85.108498 386.726196,83.779671 
	C386.398682,83.606003 386.071167,83.432335 385.704712,83.109573 
	C385.704712,83.109573 385.700714,83.263641 385.834106,82.531464 
	C384.800720,81.787689 383.767365,81.043907 382.876099,80.297745 
	C382.876099,80.297745 382.740540,80.255028 382.669647,79.662895 
	C382.321472,79.525116 381.973328,79.387329 381.085693,79.007614 
	C380.405273,78.310036 379.724854,77.612450 378.985413,76.231339 
	C376.526733,74.247658 374.068024,72.263977 371.120911,70.074753 
	C370.755310,69.700485 370.389740,69.326225 369.959259,68.260384 
	C368.906189,67.576088 367.853119,66.891792 366.784149,66.082535 
	C366.784149,66.082535 366.825928,66.198830 366.694397,65.624901 
	C366.345367,65.496201 365.996368,65.367500 365.305389,65.135750 
	C365.305389,65.135750 365.040741,64.895859 364.963074,64.183830 
	C363.835724,63.559925 362.708405,62.936020 361.256378,62.190956 
	C361.256378,62.190956 361.024414,61.933495 360.959808,61.224010 
	C356.854736,58.568497 352.749634,55.912983 348.092499,53.088230 
	C347.780853,52.867157 347.469238,52.646088 346.998657,51.898731 
	C346.538452,51.678699 346.078278,51.458664 345.042664,51.100887 
	C344.379364,50.684906 343.716095,50.268929 342.955658,49.158302 
	C338.518188,46.505058 334.220642,43.572937 329.612030,41.260849 
	C321.768707,37.325962 314.212280,32.497551 305.011810,31.999908 
	C305.011810,31.999908 305.022308,31.933598 304.718567,31.304893 
	C302.890472,30.235262 301.185181,28.721741 299.212189,28.175768 
	C292.116577,26.212261 284.970856,24.382074 277.764740,22.882710 
	C272.921112,21.874899 267.943756,21.509903 262.374634,20.889645 
	C261.949707,20.806257 261.524780,20.722870 260.861755,19.960962 
	C256.912018,19.615496 252.962296,19.270027 248.189850,18.973810 
	C246.826263,18.858273 245.462662,18.742735 243.803513,17.917236 
	C239.770248,17.529680 235.739471,16.852667 231.703186,16.818115 
	C224.509552,16.756533 217.311752,17.059635 210.119110,17.308477 
	C209.702148,17.322901 209.315552,18.215168 208.291946,18.860312 
	C207.864624,18.849110 207.437317,18.837908 206.381638,18.324177 
	C201.705978,18.044220 196.922791,17.136982 192.268417,20.816818 
	C191.835159,20.823368 191.401917,20.829916 190.416351,20.334003 
	C189.600937,20.251326 188.726440,19.933504 187.978989,20.121319 
	C177.150635,22.842197 166.274765,25.408852 155.559021,28.524115 
	C151.822220,29.610472 148.490738,32.091049 144.546417,34.236156 
	C144.213303,34.332424 143.880188,34.428692 142.757431,34.215637 
	C138.468781,36.352455 134.180115,38.489273 129.410156,40.912292 
	C129.055817,41.025936 128.701492,41.139580 127.602699,41.079441 
	C126.729797,41.705502 125.856895,42.331562 124.689621,43.164429 
	C124.689621,43.164429 124.336739,43.234463 123.766502,43.212742 
	C123.513771,43.477680 123.261040,43.742615 122.734711,44.220211 
	C122.734711,44.220211 122.398819,44.305424 121.647598,44.167320 
	C119.756668,45.421715 117.865738,46.676105 115.709595,48.168163 
	C115.709595,48.168163 115.368195,48.269474 114.614899,48.142704 
	C112.385674,49.693935 110.156448,51.245167 107.611771,53.040272 
	C107.611771,53.040272 107.229218,53.152676 106.509293,53.082951 
	C105.330559,54.033348 104.151825,54.983749 102.593414,56.323910 
	C102.126266,56.592861 101.659111,56.861816 100.466545,57.071056 
	C98.963753,58.343781 97.460960,59.616508 95.685631,61.126755 
	C95.685631,61.126755 95.341644,61.237957 94.627769,61.126198 
	C93.393997,62.348812 92.160225,63.571426 90.626648,65.049980 
	C90.626648,65.049980 90.250610,65.168205 89.564575,65.097107 
	C89.037468,65.719543 88.510361,66.341980 87.600296,67.415993 
	C86.837860,68.017754 86.075424,68.619514 84.591736,69.131920 
	C83.387787,70.407852 82.183838,71.683777 80.693985,73.378189 
	C80.411018,73.555969 80.128059,73.733757 79.138718,73.920738 
	C73.567535,79.111336 67.980408,84.285156 62.463612,89.532928 
	C62.121666,89.858200 62.332878,90.764984 62.023369,91.848747 
	C61.670334,92.228485 61.317295,92.608231 60.270893,93.034859 
	C58.622128,95.169601 56.973362,97.304344 55.217205,99.755226 
	C55.217205,99.755226 54.982983,99.993164 54.279945,100.055939 
	C53.633289,101.129738 52.986633,102.203545 52.198124,103.211746 
	C52.198124,103.211746 52.295395,103.334076 51.590065,103.202171 
	C45.149490,108.545326 40.941772,115.377258 37.985569,123.085045 
	C37.985569,123.085045 38.250099,123.200783 37.547424,123.315964 
	C36.347664,125.496338 35.147907,127.676712 33.488384,130.369324 
	C32.266975,132.578506 31.045570,134.787689 29.362272,137.210770 
	C29.277903,137.525620 29.193535,137.840454 29.079468,138.626389 
	C29.079468,138.626389 28.777092,138.988831 28.175156,139.283600 
	C26.393892,142.770081 24.314758,146.139465 22.889223,149.765778 
	C19.149113,159.279968 14.687681,168.675278 12.420650,178.555511 
	C10.336987,187.636581 10.170842,197.296844 10.319852,206.683548 
	C10.380812,210.523605 12.956360,214.704453 15.367334,218.017578 
	C17.697584,221.219711 22.096182,220.489212 25.464134,217.035751 
	C25.464134,217.035751 25.921957,216.946976 26.665739,217.016357 
	C28.475960,215.116333 30.286179,213.216309 32.463173,210.821045 
	C33.003830,210.223969 33.544483,209.626892 34.543163,208.858078 
	C34.831375,208.657242 34.988491,208.381638 34.997784,208.000443 
	C34.997784,208.000443 35.029018,208.015915 35.717976,207.970886 
	C38.487179,204.662003 41.256386,201.353119 44.222523,197.580338 
	C44.494957,197.393997 44.767395,197.207657 45.783047,197.038681 
	C46.862438,195.704651 47.941826,194.370621 49.000717,192.998657 
	C49.000717,192.998657 49.036243,193.023361 49.761227,193.045532 
	C52.175644,190.701950 54.590057,188.358368 56.998779,185.998779 
	C56.998779,185.998779 57.015129,186.003113 57.484234,185.871994 
	C57.783623,185.696671 57.967812,185.438995 58.319378,184.661789 
	C58.604469,184.471054 58.889561,184.280319 59.889381,184.070770 
	C65.172699,181.476776 70.430618,178.852539 73.254066,172.809189 
	C73.254066,172.809189 73.583817,172.741867 74.190819,172.747559 
	C74.416969,172.438568 74.643120,172.129578 74.888840,171.981689 
z"/>
<path fill="#FEC30D" opacity="1.000000" stroke="none" 
	d="
M193.835388,359.943512 
	C193.835403,359.943512 194.083176,359.650360 194.445831,359.336975 
	C195.497955,357.667847 196.187439,356.312073 196.876923,354.956299 
	C196.876938,354.956299 197.112549,354.665131 197.466553,354.352783 
	C198.827621,352.340240 199.834656,350.640015 200.841690,348.939789 
	C200.841690,348.939789 201.083237,348.668945 201.396408,348.413696 
	C201.928452,347.716217 202.147324,347.273987 202.366196,346.831726 
	C202.597214,346.520782 202.828217,346.209808 203.442245,345.501221 
	C204.208908,344.398621 204.592545,343.693634 204.976196,342.988678 
	C204.976196,342.988678 205.210007,342.746765 205.495453,342.457062 
	C205.932983,341.852356 206.085068,341.537323 206.237167,341.222321 
	C206.237167,341.222321 206.276108,341.102966 206.578918,341.056458 
	C208.688614,338.458862 210.495483,335.907806 212.302368,333.356750 
	C212.302368,333.356750 212.265747,333.267181 212.608551,333.172760 
	C213.619186,332.042572 214.287003,331.006836 214.954834,329.971069 
	C214.954834,329.971069 215.004288,329.993958 215.226624,329.899384 
	C215.763306,329.597870 215.893234,329.308228 215.838760,328.935852 
	C216.224625,328.554382 216.610504,328.172943 217.406281,327.434784 
	C218.860504,325.707825 219.904800,324.337524 220.949112,322.967255 
	C220.949112,322.967255 221.000610,322.998199 221.301453,322.875061 
	C229.203247,314.932800 236.804214,307.113708 244.405182,299.294586 
	C244.405167,299.294586 244.730988,299.175598 245.166626,299.037170 
	C246.084030,298.275482 246.565781,297.652161 247.047516,297.028870 
	C248.909058,295.524902 250.770599,294.020905 253.139664,292.206726 
	C254.899384,290.683197 256.151581,289.469849 257.403809,288.256531 
	C257.403809,288.256531 257.733459,288.140656 258.176147,287.998413 
	C260.073792,286.568420 261.528748,285.280609 262.983704,283.992828 
	C262.983704,283.992828 263.000549,284.001221 263.311646,283.964996 
	C264.187134,283.350677 264.751526,282.772552 265.315948,282.194458 
	C265.770538,281.938141 266.225098,281.681824 267.185364,281.200836 
	C269.237274,279.719971 270.783478,278.463776 272.329681,277.207581 
	C272.329681,277.207581 272.687775,277.130737 273.167175,277.003967 
	C275.217407,275.661774 276.788269,274.446381 278.359131,273.231018 
	C278.359131,273.231018 278.707733,273.154755 279.180542,273.035400 
	C280.875122,272.011658 282.096863,271.107269 283.318573,270.202881 
	C283.318573,270.202881 283.680054,270.097443 284.128174,269.977051 
	C285.178253,269.319763 285.780273,268.782837 286.382263,268.245911 
	C286.382263,268.245911 286.727142,268.173462 287.132111,268.050659 
	C287.784698,267.675049 288.032318,267.422302 288.279938,267.169525 
	C288.279938,267.169525 288.658234,267.114380 289.178436,267.004028 
	C299.958710,260.471497 310.407593,260.322723 321.030273,265.950836 
	C321.030273,265.950836 320.998505,265.997681 321.141998,266.303406 
	C326.552338,268.608063 331.819183,270.607025 337.086060,272.606018 
	C337.507233,272.710022 337.928436,272.814026 339.066864,273.028503 
	C354.635040,274.833801 368.087280,271.994141 379.034058,261.031982 
	C379.034058,261.031982 378.999786,261.001221 379.349274,260.965118 
	C388.336761,253.161011 393.718231,243.694107 394.799316,231.983719 
	C394.866089,231.540710 394.932861,231.097717 395.187378,229.997681 
	C395.230347,226.232040 395.085602,223.123444 394.940857,220.014832 
	C394.948303,219.567276 394.955750,219.119720 394.971100,217.937592 
	C393.067078,212.007401 391.155121,206.811783 389.243164,201.616150 
	C388.913422,200.903214 388.583679,200.190262 388.041260,198.917236 
	C384.219910,194.569260 380.611237,190.781387 377.002563,186.993530 
	C376.251434,186.362259 375.500305,185.730988 374.354858,184.670639 
	C361.274200,175.413864 347.312134,173.503662 332.817841,177.963531 
	C327.053619,179.737198 321.977142,183.746002 316.587555,186.737244 
	C316.587555,186.737228 316.259674,186.819855 315.800964,186.958679 
	C313.237091,189.403381 311.131927,191.709244 309.026794,194.015121 
	C309.026794,194.015121 308.998474,194.001053 308.702026,194.128128 
	C307.614563,195.506958 306.823547,196.758713 306.032501,198.010452 
	C306.032501,198.010452 305.793030,198.237762 305.448242,198.566895 
	C302.521423,205.624863 299.939423,212.353699 297.357422,219.082520 
	C297.194885,219.417679 297.032379,219.752838 296.512543,220.498962 
	C295.289185,222.178787 294.423187,223.447632 293.557159,224.716492 
	C293.557159,224.716492 293.240143,224.836472 292.813721,224.989456 
	C291.474670,226.018600 290.562042,226.894745 289.649414,227.770905 
	C289.649414,227.770920 289.295563,227.870911 288.781250,228.009247 
	C283.197357,229.740128 277.991699,230.998917 273.087433,232.997284 
	C263.911682,236.736115 254.910645,240.903778 245.836914,244.893036 
	C245.836914,244.893021 245.413773,244.941528 244.860992,245.024200 
	C240.751587,246.995422 237.194962,248.884003 233.638321,250.772583 
	C233.638321,250.772568 233.289948,250.816528 232.788406,250.926880 
	C226.717133,254.266083 221.147400,257.494934 215.577682,260.723785 
	C215.100220,260.907776 214.622757,261.091736 213.625244,261.517303 
	C211.639725,262.777466 210.174225,263.795990 208.708740,264.814514 
	C208.708740,264.814545 208.334610,264.879517 207.861893,264.976196 
	C206.809280,265.642456 206.229401,266.212036 205.649506,266.781586 
	C205.649506,266.781586 205.302109,266.867004 204.849625,266.979187 
	C203.602982,267.730530 202.808807,268.369659 202.014633,269.008759 
	C202.014633,269.008759 202.000610,268.998779 201.651886,269.016388 
	C197.221222,272.036255 193.139252,275.038483 189.057297,278.040741 
	C189.057297,278.040741 189.004089,277.999634 188.702393,278.039490 
	C187.653503,278.747101 186.906326,279.414825 186.159149,280.082550 
	C185.863144,280.243530 185.567154,280.404510 184.788620,280.812317 
	C179.075180,285.289398 173.844284,289.519684 168.613388,293.749969 
	C168.197189,294.066559 167.781006,294.383148 166.866333,294.919373 
	C164.646835,296.784241 162.925827,298.429474 161.204834,300.074707 
	C160.578964,300.571075 159.953094,301.067413 158.850021,301.858215 
	C156.147018,304.372681 153.921234,306.592743 151.695450,308.812805 
	C150.821472,309.581604 149.947479,310.350372 148.610199,311.467926 
	C147.135208,312.896545 146.123505,313.976410 145.111801,315.056274 
	C144.404312,315.722809 143.696823,316.389374 142.624847,317.455597 
	C142.049637,318.169586 141.838913,318.483917 141.628204,318.798218 
	C141.346222,318.864380 141.119293,319.014008 140.528305,319.531860 
	C136.491776,323.904694 132.874344,327.992767 129.256927,332.080872 
	C129.256927,332.080872 128.974747,332.367065 128.596252,332.658630 
	C127.515388,333.984650 126.813026,335.019073 126.110672,336.053497 
	C125.735184,336.432526 125.359695,336.811554 124.587463,337.547729 
	C123.508492,338.963959 122.826271,340.022980 122.144051,341.082031 
	C122.144051,341.082031 122.052551,341.047058 121.747421,341.179688 
	C118.868820,345.133881 116.295349,348.955444 113.721893,352.777039 
	C113.721901,352.777039 114.015968,352.885132 113.566414,352.940308 
	C112.004181,354.943604 110.891502,356.891754 109.778839,358.839905 
	C109.778839,358.839905 109.938255,359.026733 109.572693,359.086731 
	C106.812950,363.101135 104.418770,367.055511 102.024590,371.009888 
	C102.024582,371.009888 101.998016,371.000122 101.693146,371.124939 
	C99.940544,373.175903 98.492821,375.102020 97.045105,377.028137 
	C97.045105,377.028137 96.999817,377.000061 96.704437,377.060822 
	C95.947083,377.752106 95.485107,378.382660 95.023140,379.013184 
	C95.023140,379.013184 95.000160,378.998779 94.686295,379.040894 
	C93.320183,380.079559 92.267952,381.076050 91.215721,382.072571 
	C90.939209,382.283203 90.662689,382.493835 89.892944,382.896606 
	C88.805504,383.645386 88.211296,384.202057 87.617096,384.758728 
	C87.263794,384.852753 86.910500,384.946808 85.979446,385.138794 
	C83.936440,385.898407 82.471191,386.560059 81.005936,387.221741 
	C80.573456,387.231415 80.140976,387.241119 78.969543,387.235779 
	C70.155190,388.254089 64.644577,383.529938 59.168133,378.729065 
	C58.887157,378.279968 58.606186,377.830841 58.101135,376.843994 
	C50.124130,362.183197 48.262447,347.006073 49.778709,331.214722 
	C50.107971,327.785522 50.330578,324.346100 50.602303,320.911377 
	C50.698307,320.483307 50.794312,320.055206 51.099655,319.004272 
	C55.112007,305.892151 58.451290,293.236298 62.861427,280.965271 
	C66.540489,270.728424 71.474686,260.942657 75.853020,250.957138 
	C75.853020,250.957138 76.101944,250.657959 76.430298,250.276810 
	C79.293755,245.336166 81.828850,240.776672 84.363937,236.217163 
	C84.638634,235.800446 84.913330,235.383713 85.495438,234.575531 
	C85.972359,233.845566 86.141853,233.507065 86.311348,233.168564 
	C86.596786,232.757553 86.882225,232.346542 87.464478,231.548126 
	C87.910667,230.828354 88.060051,230.496002 88.209435,230.163651 
	C88.209435,230.163651 88.030815,230.178635 88.427505,230.079391 
	C89.878059,228.318359 90.931931,226.656586 91.985794,224.994797 
	C91.985794,224.994797 92.000916,225.000519 92.299240,224.873245 
	C93.358368,223.485016 94.119164,222.224060 94.879959,220.963104 
	C94.879967,220.963104 95.122414,220.690063 95.467773,220.389786 
	C96.488091,219.043610 97.163055,217.997711 97.838028,216.951813 
	C97.838028,216.951813 98.105194,216.690643 98.459183,216.386505 
	C99.492722,215.040375 100.172279,213.998413 100.851837,212.956451 
	C100.851837,212.956451 101.112419,212.698593 101.457191,212.399628 
	C102.207024,211.403580 102.612091,210.706467 103.017151,210.009354 
	C103.259331,209.781281 103.501511,209.553207 104.153442,209.014557 
	C105.672493,207.118622 106.781784,205.533249 107.891083,203.947861 
	C108.270622,203.576370 108.650162,203.204880 109.428909,202.466278 
	C110.854897,200.717545 111.881683,199.335922 112.908470,197.954315 
	C113.293289,197.603577 113.678108,197.252853 114.479874,196.540512 
	C116.568916,194.104553 118.240997,192.030197 119.913071,189.955841 
	C123.150467,186.789734 126.387863,183.623611 130.117599,180.143555 
	C133.335190,177.195236 136.060440,174.560867 138.785690,171.926498 
	C139.063812,171.717957 139.341934,171.509415 140.145538,171.079285 
	C149.215683,164.410095 151.497696,164.460800 160.438873,170.323807 
	C164.294312,172.851898 168.341965,175.249695 172.600723,176.966309 
	C181.775162,180.664261 191.222244,182.727173 201.001007,179.006699 
	C201.438278,178.988983 201.875534,178.971283 203.004181,178.918030 
	C205.740173,178.240921 207.885513,177.815582 209.811249,176.918732 
	C216.641815,173.737549 223.704056,170.821854 227.910278,163.955933 
	C228.614105,163.280716 229.317932,162.605499 230.448517,161.523499 
	C231.998001,159.137207 233.120712,157.157684 234.243439,155.178162 
	C234.243423,155.178162 234.128677,154.986359 234.472229,154.908340 
	C241.100357,143.458374 243.136124,131.592285 238.982147,119.006325 
	C238.939743,118.570938 238.897339,118.135544 238.787735,117.031670 
	C235.801804,111.263939 232.883072,106.164688 229.964340,101.065437 
	C229.877914,100.730690 229.697784,100.457802 229.169617,99.788162 
	C225.605835,96.566605 222.296371,93.803665 218.986908,91.040726 
	C218.986908,91.040726 218.730179,90.813683 218.414124,90.467087 
	C212.059250,87.837479 206.020447,85.554459 199.981628,83.271439 
	C199.539124,83.192978 199.096603,83.114510 197.998474,82.829292 
	C193.898743,82.761330 190.454620,82.900124 187.010513,83.038910 
	C185.954056,83.059601 184.897583,83.080292 183.048889,83.099854 
	C180.464066,83.407532 178.623688,83.550293 176.886292,84.050705 
	C158.480347,89.352165 148.517639,102.529877 144.434952,120.365921 
	C142.128403,130.442627 136.635071,136.212250 127.278885,140.468857 
	C115.277588,145.928879 104.110863,153.223282 92.584557,159.727341 
	C91.504257,160.319336 90.423958,160.911331 88.833054,161.776047 
	C86.558189,163.371872 84.793915,164.694977 83.029640,166.018082 
	C83.029640,166.018082 83.001328,165.997696 82.663498,166.029663 
	C80.752220,167.288040 79.178772,168.514435 77.605324,169.740814 
	C77.605324,169.740814 77.269211,169.857468 76.848610,170.003128 
	C75.893738,170.709991 75.359474,171.271194 74.825211,171.832397 
	C74.825203,171.832397 74.888840,171.981689 74.603622,171.952469 
	C74.073547,172.196121 73.828682,172.468994 73.583817,172.741867 
	C73.583817,172.741867 73.254066,172.809189 72.786400,172.944061 
	C67.937378,176.749161 63.556015,180.419373 59.174656,184.089584 
	C58.889561,184.280319 58.604469,184.471054 57.916782,184.900543 
	C57.347832,185.427246 57.181480,185.715179 57.015129,186.003113 
	C57.015129,186.003113 56.998779,185.998779 56.666656,186.051575 
	C53.901764,188.410690 51.469002,190.717026 49.036240,193.023361 
	C49.036243,193.023361 49.000717,192.998657 48.679794,193.051636 
	C47.252529,194.410202 46.146183,195.715759 45.039833,197.021317 
	C44.767395,197.207657 44.494957,197.393997 43.802212,197.904480 
	C40.597603,201.491058 37.813309,204.753479 35.029015,208.015915 
	C35.029018,208.015915 34.997784,208.000443 34.758900,208.079025 
	C34.375057,208.448349 34.230099,208.739075 34.085136,209.029816 
	C33.544483,209.626892 33.003830,210.223969 31.969360,211.140289 
	C29.624348,213.288666 27.773149,215.117813 25.921955,216.946976 
	C25.921957,216.946976 25.464134,217.035751 24.877949,217.163513 
	C18.109941,218.847137 14.812613,217.564331 13.137413,211.605392 
	C11.811706,206.889664 10.584521,201.569168 11.462245,196.923157 
	C13.765306,184.732529 16.900698,172.664032 20.377151,160.743042 
	C22.545555,153.307449 25.935390,146.228073 28.777092,138.988831 
	C28.777092,138.988831 29.079468,138.626389 29.267605,138.230682 
	C29.709391,137.613098 29.832197,137.333740 29.824163,136.996872 
	C31.045570,134.787689 32.266975,132.578506 34.048332,130.063629 
	C35.822224,127.572205 37.036160,125.386497 38.250099,123.200783 
	C38.250099,123.200783 37.985569,123.085045 38.421558,123.028336 
	C43.336830,116.425774 47.816113,109.879929 52.295395,103.334076 
	C52.295395,103.334076 52.198124,103.211746 52.563847,103.136185 
	C53.614040,102.038139 54.298512,101.015648 54.982983,99.993164 
	C54.982983,99.993164 55.217205,99.755226 55.583099,99.473328 
	C57.620750,97.123604 59.292500,95.055786 60.964256,92.987976 
	C61.317295,92.608231 61.670334,92.228485 62.474621,91.514488 
	C68.565613,85.424004 74.205360,79.667770 79.845100,73.911545 
	C80.128059,73.733757 80.411018,73.555969 81.168625,73.146042 
	C82.866501,71.683029 84.089745,70.452156 85.312988,69.221283 
	C86.075424,68.619514 86.837860,68.017754 88.105637,67.172623 
	C89.157524,66.342239 89.704071,65.755226 90.250610,65.168213 
	C90.250610,65.168205 90.626648,65.049980 91.108032,64.925446 
	C92.840164,63.613262 94.090904,62.425610 95.341644,61.237961 
	C95.341644,61.237957 95.685631,61.126755 96.162827,61.004951 
	C98.157333,59.632359 99.674652,58.381565 101.191971,57.130768 
	C101.659111,56.861816 102.126266,56.592861 103.119965,56.112434 
	C104.840744,54.984867 106.034981,54.068771 107.229218,53.152676 
	C107.229218,53.152676 107.611771,53.040272 108.115570,52.920044 
	C110.868973,51.289700 113.118584,49.779587 115.368195,48.269474 
	C115.368195,48.269474 115.709595,48.168163 116.192673,48.044388 
	C118.583443,46.715553 120.491135,45.510490 122.398819,44.305428 
	C122.398819,44.305424 122.734711,44.220211 123.149277,44.104088 
	C123.821480,43.736794 124.079109,43.485630 124.336739,43.234467 
	C124.336739,43.234463 124.689621,43.164429 125.175705,43.088348 
	C126.556908,42.425922 127.452026,41.839569 128.347153,41.253220 
	C128.701492,41.139580 129.055817,41.025936 130.009247,40.819462 
	C134.921265,38.659409 139.234161,36.592190 143.547073,34.524963 
	C143.880188,34.428692 144.213303,34.332424 145.145691,34.100929 
	C153.777771,31.344337 161.754593,28.531559 169.860443,26.159878 
	C176.819916,24.123617 183.926910,22.591515 190.968658,20.836466 
	C191.401917,20.829916 191.835159,20.823368 193.008270,20.830677 
	C198.168762,20.171926 202.589371,19.499317 207.009995,18.826706 
	C207.437317,18.837908 207.864624,18.849110 209.066498,18.893116 
	C221.260376,18.826344 232.679733,18.726770 244.099075,18.627197 
	C245.462662,18.742735 246.826263,18.858273 248.917603,19.171635 
	C253.463531,19.792801 257.281677,20.216141 261.099854,20.639481 
	C261.524780,20.722870 261.949707,20.806257 262.991882,21.114546 
	C267.983551,22.291059 272.397675,23.091036 276.724152,24.225370 
	C286.180481,26.704679 295.592316,29.353828 305.022308,31.933598 
	C305.022308,31.933598 305.011810,31.999908 305.228668,32.275810 
	C308.947693,33.980762 312.518524,35.263359 315.938721,36.867199 
	C325.011505,41.121677 334.019196,45.514919 343.052795,49.852951 
	C343.716095,50.268929 344.379364,50.684906 345.421600,51.428539 
	C346.252899,51.979126 346.705261,52.202061 347.157623,52.425011 
	C347.469238,52.646088 347.780853,52.867157 348.516083,53.476349 
	C352.967926,56.554142 356.996155,59.243816 361.024414,61.933495 
	C361.024414,61.933495 361.256378,62.190956 361.555573,62.547691 
	C362.916748,63.568237 363.978760,64.232048 365.040741,64.895859 
	C365.040741,64.895859 365.305389,65.135750 365.591797,65.434036 
	C366.194092,65.887817 366.510010,66.043327 366.825928,66.198830 
	C366.825928,66.198830 366.784149,66.082535 366.861633,66.460999 
	C367.967468,67.543625 368.995789,68.247795 370.024139,68.951965 
	C370.389740,69.326225 370.755310,69.700485 371.492859,70.488220 
	C374.257996,72.906075 376.651215,74.910469 379.044434,76.914864 
	C379.724854,77.612450 380.405273,78.310036 381.460876,79.374893 
	C382.137543,79.913132 382.439056,80.084084 382.740540,80.255035 
	C382.740540,80.255028 382.876099,80.297745 382.879700,80.602005 
	C383.822449,81.692062 384.761566,82.477852 385.700714,83.263641 
	C385.700714,83.263641 385.704712,83.109573 385.798828,83.439613 
	C386.177704,83.971489 386.462463,84.173332 386.747253,84.375168 
	C387.386993,85.108498 388.026764,85.841843 388.913422,87.102699 
	C394.350006,93.545227 399.539673,99.460228 404.729340,105.375229 
	C404.879822,105.722084 405.030273,106.068947 405.387360,106.890602 
	C406.012085,107.665047 406.430206,107.964699 406.848297,108.264359 
	C406.848297,108.264366 406.969360,108.630577 407.093750,109.100487 
	C408.174530,110.671867 409.130920,111.773331 410.087311,112.874802 
	C410.087311,112.874809 410.031189,112.962631 410.075562,113.251762 
	C410.658203,114.103981 411.196472,114.667068 411.734772,115.230156 
	C411.734772,115.230156 411.995636,115.125099 411.891571,115.495773 
	C412.440918,116.690895 413.094330,117.515343 413.747742,118.339790 
	C413.747742,118.339790 413.868225,118.688286 414.008362,119.175468 
	C417.051361,124.172218 419.954224,128.681778 422.857056,133.191345 
	C423.549286,134.577942 424.241486,135.964523 425.086945,137.975067 
	C426.404419,140.519806 427.568634,142.440598 428.732819,144.361389 
	C428.832092,144.715988 428.931335,145.070587 429.128418,146.027390 
	C433.069885,156.462524 437.243439,166.182846 440.651245,176.164597 
	C443.303223,183.932388 445.001343,192.025848 447.123352,199.974564 
	C447.145599,200.407928 447.167847,200.841278 447.181488,201.997772 
	C447.846649,206.483185 448.520447,210.245453 449.194214,214.007721 
	C449.192535,214.433197 449.190826,214.858658 449.151733,216.039780 
	C449.443573,225.600677 449.947021,234.404022 450.043121,243.211823 
	C450.111786,249.505569 449.633881,255.805252 449.399841,262.102295 
	C449.298096,262.823120 449.196320,263.543915 448.949768,264.991028 
	C448.316406,269.843414 447.827850,273.969452 447.339264,278.095520 
	C447.253235,278.519684 447.167206,278.943878 446.865387,279.990723 
	C445.582581,285.308197 444.663361,290.042603 443.416840,294.689209 
	C441.055786,303.490509 438.507019,312.241425 436.036224,321.013275 
	C435.879944,321.322144 435.723663,321.631012 435.267395,322.417389 
	C431.688721,330.278870 428.410095,337.662842 425.131470,345.046814 
	C425.131470,345.046814 424.916351,345.378754 424.591858,345.688782 
	C423.953461,346.696930 423.639526,347.395050 423.325623,348.093201 
	C423.164581,348.422791 423.003571,348.752380 422.479797,349.507874 
	C420.440887,352.967621 418.764679,356.001526 417.088470,359.035461 
	C417.088470,359.035461 416.863190,359.319641 416.524048,359.612915 
	C415.828156,360.618530 415.471375,361.330841 415.114624,362.043152 
	C415.114624,362.043152 414.885986,362.331757 414.540588,362.621277 
	C413.820129,363.614441 413.445068,364.318085 413.070038,365.021729 
	C413.070038,365.021729 412.848450,365.307739 412.512268,365.606537 
	C411.811066,366.613403 411.446045,367.321503 411.081024,368.029572 
	C411.081024,368.029572 410.859924,368.318115 410.501495,368.617828 
	C409.340820,370.204010 408.538574,371.490448 407.736298,372.776886 
	C407.736298,372.776886 407.991119,372.886108 407.575500,372.920166 
	C406.776733,373.637939 406.393585,374.321655 406.010437,375.005371 
	C405.660675,375.398804 405.310883,375.792206 404.558105,376.550781 
	C402.284576,379.011810 400.448090,381.139252 398.537384,383.197754 
	C391.444977,390.838837 384.328094,398.457214 377.220367,406.084076 
	C376.599640,406.594330 375.978912,407.104553 374.956665,407.907043 
	C374.374023,408.468323 374.192871,408.737335 374.011688,409.006317 
	C374.011688,409.006317 374.000000,409.000000 373.662384,409.044189 
	C368.755585,412.967896 364.186401,416.847443 359.617218,420.726990 
	C359.617218,420.726990 359.284271,420.835449 358.808228,420.973145 
	C352.772125,424.992584 347.212006,428.874359 341.651917,432.756104 
	C341.651917,432.756104 341.307037,432.844482 340.808472,432.960327 
	C335.782349,435.654541 331.254761,438.232910 326.727203,440.811279 
	C326.355499,440.912109 325.983826,441.012909 325.017670,441.223999 
	C321.518585,442.812683 318.613953,444.291138 315.709320,445.769531 
	C315.709320,445.769531 315.334534,445.849915 314.802429,445.958923 
	C300.178680,450.462646 286.087067,454.857361 271.995422,459.252075 
	C271.574890,459.273834 271.154388,459.295654 270.052185,459.309814 
	C261.920166,460.567383 254.469772,461.832581 247.019379,463.097748 
	C245.648911,463.148071 244.278442,463.198395 242.046631,463.209167 
	C233.731537,463.205444 226.276886,463.332581 218.824234,463.258484 
	C202.136581,463.092590 186.211243,460.353577 172.906601,449.141235 
	C172.906601,449.141235 172.944687,449.048706 172.881653,448.738708 
	C171.588516,446.897797 170.358444,445.366852 169.128357,443.835907 
	C169.128357,443.835907 169.049591,443.416016 168.966415,442.884583 
	C168.214706,440.909882 167.546173,439.466644 166.877655,438.023407 
	C166.844482,437.592377 166.811325,437.161316 166.780960,435.964172 
	C166.014496,426.058258 167.810959,417.371338 171.283981,408.946106 
	C175.129623,399.617004 178.874115,390.246155 182.662628,380.893494 
	C182.813309,380.548798 182.964005,380.204132 183.469055,379.430237 
	C186.197891,374.328430 188.572357,369.655823 190.946838,364.983185 
	C190.946838,364.983185 191.157837,364.682770 191.497894,364.367126 
	C192.503754,362.682129 193.169571,361.312836 193.835388,359.943512 
z"/>
<path fill="#FFF7C6" opacity="1.000000" stroke="none" 
	d="
M92.977821,159.812012 
	C104.110863,153.223282 115.277588,145.928879 127.278885,140.468857 
	C136.635071,136.212250 142.128403,130.442627 144.434952,120.365921 
	C148.517639,102.529877 158.480347,89.352165 176.886292,84.050705 
	C178.623688,83.550293 180.464066,83.407532 182.662704,83.193451 
	C182.523392,83.828918 182.049500,84.734741 181.422302,84.857552 
	C159.823044,89.086769 149.675919,104.081871 145.074219,123.946960 
	C143.183792,132.107773 138.521027,137.043411 131.094315,140.556000 
	C120.371300,145.627655 110.018898,151.481644 99.492935,156.972244 
	C97.489075,158.017517 95.413551,158.925415 92.977821,159.812012 
z"/>
<path fill="#FFF7C6" opacity="1.000000" stroke="none" 
	d="
M28.476124,139.136215 
	C25.935390,146.228073 22.545555,153.307449 20.377151,160.743042 
	C16.900698,172.664032 13.765306,184.732529 11.462245,196.923157 
	C10.584521,201.569168 11.811706,206.889664 13.137413,211.605392 
	C14.812613,217.564331 18.109941,218.847137 24.681992,217.289886 
	C22.096182,220.489212 17.697584,221.219711 15.367334,218.017578 
	C12.956360,214.704453 10.380812,210.523605 10.319852,206.683548 
	C10.170842,197.296844 10.336987,187.636581 12.420650,178.555511 
	C14.687681,168.675278 19.149113,159.279968 22.889223,149.765778 
	C24.314758,146.139465 26.393892,142.770081 28.476124,139.136215 
z"/>
<path fill="#FFF5BD" opacity="1.000000" stroke="none" 
	d="
M172.916779,449.499756 
	C186.211243,460.353577 202.136581,463.092590 218.824234,463.258484 
	C226.276886,463.332581 233.731537,463.205444 241.645508,463.300232 
	C241.346191,463.943298 240.609482,464.864288 239.823761,464.908173 
	C222.142471,465.895813 204.473541,465.928864 187.574005,459.770477 
	C182.070267,457.764893 175.847397,456.033112 172.916779,449.499756 
z"/>
<path fill="#FFF7C6" opacity="1.000000" stroke="none" 
	d="
M200.723511,178.721298 
	C191.222244,182.727173 181.775162,180.664261 172.600723,176.966309 
	C168.341965,175.249695 164.294312,172.851898 160.438873,170.323807 
	C151.497696,164.460800 149.215683,164.410095 140.322998,170.887695 
	C143.439011,163.514420 151.725647,161.909363 158.245117,166.577042 
	C169.458862,174.605652 181.263687,181.371155 196.052368,178.139252 
	C197.429535,177.838287 198.977402,178.318436 200.723511,178.721298 
z"/>
<path fill="#FFF7C6" opacity="1.000000" stroke="none" 
	d="
M75.518814,251.017654 
	C71.474686,260.942657 66.540489,270.728424 62.861427,280.965271 
	C58.451290,293.236298 55.112007,305.892151 51.073593,318.674011 
	C51.406036,314.008667 51.027287,308.699768 52.711781,304.155792 
	C58.783279,287.777649 65.516670,271.643646 72.106110,255.460632 
	C72.762268,253.849152 74.141159,252.531952 75.518814,251.017654 
z"/>
<path fill="#FFF7C6" opacity="1.000000" stroke="none" 
	d="
M316.972656,186.798523 
	C321.977142,183.746002 327.053619,179.737198 332.817841,177.963531 
	C347.312134,173.503662 361.274200,175.413864 374.076416,184.563049 
	C368.811005,183.038483 363.543488,180.234192 358.020935,179.578644 
	C350.395691,178.673492 342.420166,178.445602 334.892700,179.706787 
	C328.818756,180.724472 323.186157,184.376495 316.972656,186.798523 
z"/>
<path fill="#FFF5BD" opacity="1.000000" stroke="none" 
	d="
M182.328934,380.962585 
	C178.874115,390.246155 175.129623,399.617004 171.283981,408.946106 
	C167.810959,417.371338 166.014496,426.058258 166.667160,435.659363 
	C165.845413,435.183075 164.497482,434.222626 164.529831,433.311218 
	C165.197174,414.508606 173.550980,398.141815 181.167496,381.549469 
	C181.280930,381.302307 181.712265,381.201050 182.328934,380.962585 
z"/>
<path fill="#FFF5BD" opacity="1.000000" stroke="none" 
	d="
M447.377197,199.696442 
	C445.001343,192.025848 443.303223,183.932388 440.651245,176.164597 
	C437.243439,166.182846 433.069885,156.462524 429.262573,146.269608 
	C431.298126,149.180283 433.961273,152.222794 435.177673,155.762451 
	C439.639496,168.746429 443.661346,181.882965 447.720306,195.001846 
	C448.133392,196.336990 447.681519,197.939758 447.377197,199.696442 
z"/>
<path fill="#FFF7C6" opacity="1.000000" stroke="none" 
	d="
M50.262878,321.034149 
	C50.330578,324.346100 50.107971,327.785522 49.778709,331.214722 
	C48.262447,347.006073 50.124130,362.183197 57.900970,376.666626 
	C55.419697,372.565460 51.974152,368.376099 50.588940,363.590363 
	C46.723408,350.235413 47.318810,336.508820 49.044544,322.837036 
	C49.118725,322.249390 49.620739,321.715729 50.262878,321.034149 
z"/>
<path fill="#FFF5BD" opacity="1.000000" stroke="none" 
	d="
M449.750458,261.951843 
	C449.633881,255.805252 450.111786,249.505569 450.043121,243.211823 
	C449.947021,234.404022 449.443573,225.600677 449.233093,216.349548 
	C450.203918,219.415100 451.772217,222.925705 451.776184,226.438080 
	C451.789124,237.817413 451.236053,249.197647 450.856537,260.576050 
	C450.842651,260.992462 450.363434,261.393311 449.750458,261.951843 
z"/>
<path fill="#FFF5BD" opacity="1.000000" stroke="none" 
	d="
M190.692505,20.585236 
	C183.926910,22.591515 176.819916,24.123617 169.860443,26.159878 
	C161.754593,28.531559 153.777771,31.344337 145.359558,33.950302 
	C148.490738,32.091049 151.822220,29.610472 155.559021,28.524115 
	C166.274765,25.408852 177.150635,22.842197 187.978989,20.121319 
	C188.726440,19.933504 189.600937,20.251326 190.692505,20.585236 
z"/>
<path fill="#FFF7C6" opacity="1.000000" stroke="none" 
	d="
M246.239975,244.941620 
	C254.910645,240.903778 263.911682,236.736115 273.087433,232.997284 
	C277.991699,230.998917 283.197357,229.740128 288.651428,228.139420 
	C284.834778,229.983932 280.675110,231.938614 276.423309,233.666550 
	C269.140228,236.626404 261.811279,239.474960 254.476562,242.305466 
	C251.903259,243.298508 249.256348,244.100815 246.239975,244.941620 
z"/>
<path fill="#FFF5BD" opacity="1.000000" stroke="none" 
	d="
M272.293030,459.483063 
	C286.087067,454.857361 300.178680,450.462646 314.648193,446.072693 
	C313.078278,447.360535 311.286682,449.073303 309.154266,449.848602 
	C301.832306,452.510712 294.463226,455.101288 286.968719,457.209412 
	C282.309845,458.519928 277.392151,458.910553 272.293030,459.483063 
z"/>
<path fill="#FFF5BD" opacity="1.000000" stroke="none" 
	d="
M377.568237,406.077209 
	C384.328094,398.457214 391.444977,390.838837 398.537384,383.197754 
	C400.448090,381.139252 402.284576,379.011810 404.475281,376.807312 
	C401.801117,380.896027 399.225403,385.489197 395.716736,389.200317 
	C390.108917,395.131622 383.881561,400.477173 377.568237,406.077209 
z"/>
<path fill="#FFF5BD" opacity="1.000000" stroke="none" 
	d="
M304.870422,31.619247 
	C295.592316,29.353828 286.180481,26.704679 276.724152,24.225370 
	C272.397675,23.091036 267.983551,22.291059 263.317688,21.098377 
	C267.943756,21.509903 272.921112,21.874899 277.764740,22.882710 
	C284.970856,24.382074 292.116577,26.212261 299.212189,28.175768 
	C301.185181,28.721741 302.890472,30.235262 304.870422,31.619247 
z"/>
<path fill="#FFF5BD" opacity="1.000000" stroke="none" 
	d="
M343.004211,49.505627 
	C334.019196,45.514919 325.011505,41.121677 315.938721,36.867199 
	C312.518524,35.263359 308.947693,33.980762 305.254822,32.254738 
	C314.212280,32.497551 321.768707,37.325962 329.612030,41.260849 
	C334.220642,43.572937 338.518188,46.505058 343.004211,49.505627 
z"/>
<path fill="#FFF5BD" opacity="1.000000" stroke="none" 
	d="
M243.951294,18.272217 
	C232.679733,18.726770 221.260376,18.826344 209.377930,18.812412 
	C209.315552,18.215168 209.702148,17.322901 210.119110,17.308477 
	C217.311752,17.059635 224.509552,16.756533 231.703186,16.818115 
	C235.739471,16.852667 239.770248,17.529680 243.951294,18.272217 
z"/>
<path fill="#FFF7C6" opacity="1.000000" stroke="none" 
	d="
M378.664642,261.009155 
	C368.087280,271.994141 354.635040,274.833801 339.393402,272.999115 
	C341.415741,272.583649 343.834015,272.034027 346.240997,272.079620 
	C357.079163,272.284760 366.666412,268.942749 375.232605,262.393890 
	C376.103271,261.728241 377.267334,261.446350 378.664642,261.009155 
z"/>
<path fill="#FFF5BD" opacity="1.000000" stroke="none" 
	d="
M436.395142,320.956299 
	C438.507019,312.241425 441.055786,303.490509 443.416840,294.689209 
	C444.663361,290.042603 445.582581,285.308197 446.882080,280.316284 
	C446.203278,286.076904 445.802429,292.268890 444.254059,298.159210 
	C442.228699,305.864014 439.296265,313.330383 436.395142,320.956299 
z"/>
<path fill="#FFF7C6" opacity="1.000000" stroke="none" 
	d="
M238.702927,119.288345 
	C243.136124,131.592285 241.100357,143.458374 234.521851,155.005463 
	C235.422195,151.486298 237.208649,147.864960 237.674957,144.080933 
	C238.414093,138.083023 238.296936,131.977142 238.485458,125.915192 
	C238.551147,123.802925 238.449127,121.685455 238.702927,119.288345 
z"/>
<path fill="#FFF7C6" opacity="1.000000" stroke="none" 
	d="
M394.503357,232.173981 
	C393.718231,243.694107 388.336761,253.161011 379.364441,260.982910 
	C380.275085,258.951996 381.207642,256.577209 382.823334,254.836517 
	C387.762115,249.515579 390.861176,243.397781 392.194519,236.277908 
	C392.453278,234.896164 393.515717,233.664917 394.503357,232.173981 
z"/>
<path fill="#FFF5BD" opacity="1.000000" stroke="none" 
	d="
M244.038361,299.225708 
	C236.804214,307.113708 229.203247,314.932800 221.282776,322.851440 
	C221.398376,321.563141 221.422974,319.764832 222.334412,318.853180 
	C228.872879,312.313080 235.584991,305.946289 242.273865,299.557831 
	C242.584259,299.261383 243.198700,299.283203 244.038361,299.225708 
z"/>
<path fill="#FFF7C6" opacity="1.000000" stroke="none" 
	d="
M320.983215,265.600830 
	C310.407593,260.322723 299.958710,260.471497 289.335449,266.895020 
	C294.835602,259.924713 302.653168,259.045197 310.795776,260.616638 
	C314.341919,261.301056 317.565857,263.655060 320.983215,265.600830 
z"/>
<path fill="#FFF7C6" opacity="1.000000" stroke="none" 
	d="
M227.565674,163.984955 
	C223.704056,170.821854 216.641815,173.737549 209.811249,176.918732 
	C207.885513,177.815582 205.740173,178.240921 203.316071,178.812469 
	C203.564484,178.048599 204.083679,176.914124 204.836899,176.728317 
	C213.509689,174.589035 220.206406,169.030716 227.565674,163.984955 
z"/>
<path fill="#FFF5BD" opacity="1.000000" stroke="none" 
	d="
M51.942730,103.268127 
	C47.816113,109.879929 43.336830,116.425774 38.551353,123.094177 
	C40.941772,115.377258 45.149490,108.545326 51.942730,103.268127 
z"/>
<path fill="#FFF5BD" opacity="1.000000" stroke="none" 
	d="
M79.491913,73.916138 
	C74.205360,79.667770 68.565613,85.424004 62.606300,91.290726 
	C62.332878,90.764984 62.121666,89.858200 62.463612,89.532928 
	C67.980408,84.285156 73.567535,79.111336 79.491913,73.916138 
z"/>
<path fill="#FFF5BD" opacity="1.000000" stroke="none" 
	d="
M247.311539,463.365631 
	C254.469772,461.832581 261.920166,460.567383 269.760071,459.434174 
	C269.631012,460.325928 269.176483,461.690491 268.584076,461.753235 
	C261.602570,462.492828 254.600418,463.037506 247.311539,463.365631 
z"/>
<path fill="#FFF5BD" opacity="1.000000" stroke="none" 
	d="
M404.786926,105.005318 
	C399.539673,99.460228 394.350006,93.545227 389.136475,87.292503 
	C394.356598,92.848320 399.600586,98.741859 404.786926,105.005318 
z"/>
<path fill="#FFF5BD" opacity="1.000000" stroke="none" 
	d="
M425.466217,344.982971 
	C428.410095,337.662842 431.688721,330.278870 435.229370,322.675598 
	C433.289093,328.489899 431.176910,334.559021 428.824768,340.533630 
	C428.191254,342.142883 426.828827,343.465179 425.466217,344.982971 
z"/>
<path fill="#FFF7C6" opacity="1.000000" stroke="none" 
	d="
M59.138927,379.093506 
	C64.644577,383.529938 70.155190,388.254089 78.662239,387.343994 
	C78.176826,387.981750 77.209106,389.013275 76.350662,388.929199 
	C69.290474,388.237610 62.725121,386.482697 59.138927,379.093506 
z"/>
<path fill="#FFF7C6" opacity="1.000000" stroke="none" 
	d="
M168.987244,293.803772 
	C173.844284,289.519684 179.075180,285.289398 184.654068,281.031677 
	C179.788406,285.288696 174.574753,289.573151 168.987244,293.803772 
z"/>
<path fill="#FFF5BD" opacity="1.000000" stroke="none" 
	d="
M342.029053,432.816040 
	C347.212006,428.874359 352.772125,424.992584 358.681274,421.093689 
	C357.873322,422.574127 357.006104,424.527924 355.503906,425.482239 
	C351.277863,428.166962 346.790497,430.440399 342.029053,432.816040 
z"/>
<path fill="#FFF7C6" opacity="1.000000" stroke="none" 
	d="
M297.699219,219.007233 
	C299.939423,212.353699 302.521423,205.624863 305.406433,198.726593 
	C303.153290,205.348740 300.597168,212.140335 297.699219,219.007233 
z"/>
<path fill="#FFF7C6" opacity="1.000000" stroke="none" 
	d="
M59.532021,184.080170 
	C63.556015,180.419373 67.937378,176.749161 72.665794,173.061417 
	C70.430618,178.852539 65.172699,181.476776 59.532021,184.080170 
z"/>
<path fill="#FFF7C6" opacity="1.000000" stroke="none" 
	d="
M215.981537,260.785828 
	C221.147400,257.494934 226.717133,254.266083 232.649796,251.034637 
	C232.862976,251.490524 232.850204,252.205338 232.543152,252.369385 
	C227.178635,255.235611 221.778091,258.034393 215.981537,260.785828 
z"/>
<path fill="#FFF7C6" opacity="1.000000" stroke="none" 
	d="
M200.173370,83.558945 
	C206.020447,85.554459 212.059250,87.837479 218.246094,90.433411 
	C212.384460,88.446365 206.374786,86.146400 200.173370,83.558945 
z"/>
<path fill="#FFF7C6" opacity="1.000000" stroke="none" 
	d="
M229.960632,101.432068 
	C232.883072,106.164688 235.801804,111.263939 238.659790,116.728043 
	C237.844223,116.533669 236.761688,116.137726 236.388382,115.388428 
	C234.153946,110.903664 232.082809,106.337540 229.960632,101.432068 
z"/>
<path fill="#FFF5BD" opacity="1.000000" stroke="none" 
	d="
M359.987762,420.796936 
	C364.186401,416.847443 368.755585,412.967896 373.665619,409.049561 
	C369.457092,412.962830 364.907684,416.914825 359.987762,420.796936 
z"/>
<path fill="#FFF7C6" opacity="1.000000" stroke="none" 
	d="
M377.027527,187.344894 
	C380.611237,190.781387 384.219910,194.569260 387.833649,198.702667 
	C384.243286,195.264236 380.647888,191.480255 377.027527,187.344894 
z"/>
<path fill="#FFF7C6" opacity="1.000000" stroke="none" 
	d="
M389.183472,202.024445 
	C391.155121,206.811783 393.067078,212.007401 394.896606,217.609009 
	C392.917389,212.820908 391.020569,207.626831 389.183472,202.024445 
z"/>
<path fill="#FFF7C6" opacity="1.000000" stroke="none" 
	d="
M129.599304,332.068054 
	C132.874344,327.992767 136.491776,323.904694 140.435638,319.717224 
	C137.155258,323.763641 133.548462,327.909454 129.599304,332.068054 
z"/>
<path fill="#FFF7C6" opacity="1.000000" stroke="none" 
	d="
M336.984772,272.280121 
	C331.819183,270.607025 326.552338,268.608063 321.165710,266.288086 
	C326.325104,267.962769 331.604279,269.958496 336.984772,272.280121 
z"/>
<path fill="#FFF7C6" opacity="1.000000" stroke="none" 
	d="
M189.428345,278.044495 
	C193.139252,275.038483 197.221222,272.036255 201.654816,269.023865 
	C199.245224,273.792236 195.011078,276.580627 189.428345,278.044495 
z"/>
<path fill="#FFF5BD" opacity="1.000000" stroke="none" 
	d="
M422.912720,132.805893 
	C419.954224,128.681778 417.051361,124.172218 414.134399,119.310013 
	C417.069641,123.445061 420.019012,127.932755 422.912720,132.805893 
z"/>
<path fill="#FFF7C6" opacity="1.000000" stroke="none" 
	d="
M83.991089,236.186401 
	C81.828850,240.776672 79.293755,245.336166 76.473724,250.087112 
	C78.665268,245.570923 81.141747,240.863281 83.991089,236.186401 
z"/>
<path fill="#FFF5BD" opacity="1.000000" stroke="none" 
	d="
M190.593109,365.021240 
	C188.572357,369.655823 186.197891,374.328430 183.515320,379.150635 
	C185.551254,374.553223 187.895309,369.806274 190.593109,365.021240 
z"/>
<path fill="#FFF5BD" opacity="1.000000" stroke="none" 
	d="
M360.992126,61.578751 
	C356.996155,59.243816 352.967926,56.554142 348.792114,53.560966 
	C352.749634,55.912983 356.854736,58.568497 360.992126,61.578751 
z"/>
<path fill="#FFF5BD" opacity="1.000000" stroke="none" 
	d="
M327.114075,440.858276 
	C331.254761,438.232910 335.782349,435.654541 340.670990,433.073395 
	C336.521667,435.682159 332.011322,438.293701 327.114075,440.858276 
z"/>
<path fill="#FFF7C6" opacity="1.000000" stroke="none" 
	d="
M102.365280,370.975769 
	C104.418770,367.055511 106.812950,363.101135 109.500656,358.988342 
	C107.431442,362.867188 105.068703,366.904419 102.365280,370.975769 
z"/>
<path fill="#FFF5BD" opacity="1.000000" stroke="none" 
	d="
M206.695816,18.575441 
	C202.589371,19.499317 198.168762,20.171926 193.321564,20.740349 
	C196.922791,17.136982 201.705978,18.044220 206.695816,18.575441 
z"/>
<path fill="#FFF7C6" opacity="1.000000" stroke="none" 
	d="
M219.017044,91.383865 
	C222.296371,93.803665 225.605835,96.566605 228.951782,99.667732 
	C225.674576,97.246284 222.360886,94.486649 219.017044,91.383865 
z"/>
<path fill="#FFF7C6" opacity="1.000000" stroke="none" 
	d="
M114.072708,352.740845 
	C116.295349,348.955444 118.868820,345.133881 121.766205,341.224915 
	C119.534592,344.993225 116.979057,348.848969 114.072708,352.740845 
z"/>
<path fill="#FFF5BD" opacity="1.000000" stroke="none" 
	d="
M143.152252,34.370300 
	C139.234161,36.592190 134.921265,38.659409 130.249908,40.676361 
	C134.180115,38.489273 138.468781,36.352455 143.152252,34.370300 
z"/>
<path fill="#FFF5BD" opacity="1.000000" stroke="none" 
	d="
M447.679504,277.975464 
	C447.827850,273.969452 448.316406,269.843414 448.976868,265.355804 
	C448.772400,269.281311 448.396057,273.568329 447.679504,277.975464 
z"/>
<path fill="#FFF7C6" opacity="1.000000" stroke="none" 
	d="
M35.373497,207.993408 
	C37.813309,204.753479 40.597603,201.491058 43.703743,198.136444 
	C41.256386,201.353119 38.487179,204.662003 35.373497,207.993408 
z"/>
<path fill="#FFF5BD" opacity="1.000000" stroke="none" 
	d="
M260.980804,20.300220 
	C257.281677,20.216141 253.463531,19.792801 249.328964,19.147011 
	C252.962296,19.270027 256.912018,19.615496 260.980804,20.300220 
z"/>
<path fill="#FFF7C6" opacity="1.000000" stroke="none" 
	d="
M138.436661,171.930328 
	C136.060440,174.560867 133.335190,177.195236 130.272125,179.846649 
	C132.652100,177.220520 135.369873,174.577347 138.436661,171.930328 
z"/>
<path fill="#FFF7C6" opacity="1.000000" stroke="none" 
	d="
M234.039612,250.830231 
	C237.194962,248.884003 240.751587,246.995422 244.674591,245.127197 
	C241.507629,247.060989 237.974274,248.974426 234.039612,250.830231 
z"/>
<path fill="#FFF5BD" opacity="1.000000" stroke="none" 
	d="
M449.437866,213.700684 
	C448.520447,210.245453 447.846649,206.483185 447.280334,202.309189 
	C448.152344,205.729523 448.916931,209.561600 449.437866,213.700684 
z"/>
<path fill="#FFF7C6" opacity="1.000000" stroke="none" 
	d="
M187.301025,83.318405 
	C190.454620,82.900124 193.898743,82.761330 197.661530,82.858856 
	C194.517319,83.262749 191.054413,83.430328 187.301025,83.318405 
z"/>
<path fill="#FFF5BD" opacity="1.000000" stroke="none" 
	d="
M417.437744,358.994415 
	C418.764679,356.001526 420.440887,352.967621 422.418579,349.777100 
	C421.075714,352.731445 419.431335,355.842407 417.437744,358.994415 
z"/>
<path fill="#FFF7C6" opacity="1.000000" stroke="none" 
	d="
M394.664490,220.301590 
	C395.085602,223.123444 395.230347,226.232040 395.153015,229.662354 
	C394.750000,226.852142 394.569031,223.720245 394.664490,220.301590 
z"/>
<path fill="#FFF5BD" opacity="1.000000" stroke="none" 
	d="
M211.940292,333.274231 
	C210.495483,335.907806 208.688614,338.458862 206.573608,341.119934 
	C208.036392,338.550537 209.807297,335.871094 211.940292,333.274231 
z"/>
<path fill="#FFF7C6" opacity="1.000000" stroke="none" 
	d="
M49.398735,193.034454 
	C51.469002,190.717026 53.901764,188.410690 56.669502,186.059586 
	C54.590057,188.358368 52.175644,190.701950 49.398735,193.034454 
z"/>
<path fill="#FFF7C6" opacity="1.000000" stroke="none" 
	d="
M152.059387,308.851807 
	C153.921234,306.592743 156.147018,304.372681 158.709717,302.122375 
	C156.838852,304.358368 154.631104,306.624573 152.059387,308.851807 
z"/>
<path fill="#FFF7C6" opacity="1.000000" stroke="none" 
	d="
M309.369629,193.988037 
	C311.131927,191.709244 313.237091,189.403381 315.681610,187.078415 
	C313.918121,189.359879 311.815277,191.660431 309.369629,193.988037 
z"/>
<path fill="#FFF5BD" opacity="1.000000" stroke="none" 
	d="
M379.014923,76.573105 
	C376.651215,74.910469 374.257996,72.906075 371.737061,70.590988 
	C374.068024,72.263977 376.526733,74.247658 379.014923,76.573105 
z"/>
<path fill="#FFF5BD" opacity="1.000000" stroke="none" 
	d="
M316.113464,445.847839 
	C318.613953,444.291138 321.518585,442.812683 324.773193,441.379944 
	C322.254639,442.925781 319.386108,444.425964 316.113464,445.847839 
z"/>
<path fill="#FFF7C6" opacity="1.000000" stroke="none" 
	d="
M119.568665,189.982849 
	C118.240997,192.030197 116.568916,194.104553 114.578522,196.293411 
	C115.914886,194.275223 117.569565,192.142517 119.568665,189.982849 
z"/>
<path fill="#FFF5BD" opacity="1.000000" stroke="none" 
	d="
M37.898762,123.258377 
	C37.036160,125.386497 35.822224,127.572205 34.278214,129.807495 
	C35.147907,127.676712 36.347664,125.496338 37.898762,123.258377 
z"/>
<path fill="#FFF5BD" opacity="1.000000" stroke="none" 
	d="
M60.617573,93.011414 
	C59.292500,95.055786 57.620750,97.123604 55.636799,99.315247 
	C56.973362,97.304344 58.622128,95.169601 60.617573,93.011414 
z"/>
<path fill="#FFF5BD" opacity="1.000000" stroke="none" 
	d="
M114.991547,48.206089 
	C113.118584,49.779587 110.868973,51.289700 108.273293,52.798103 
	C110.156448,51.245167 112.385674,49.693935 114.991547,48.206089 
z"/>
<path fill="#FFF7C6" opacity="1.000000" stroke="none" 
	d="
M26.293846,216.981659 
	C27.773149,215.117813 29.624348,213.288666 31.785973,211.387894 
	C30.286179,213.216309 28.475960,215.116333 26.293846,216.981659 
z"/>
<path fill="#FFF7C6" opacity="1.000000" stroke="none" 
	d="
M233.889679,155.243668 
	C233.120712,157.157684 231.998001,159.137207 230.557465,161.244827 
	C231.338425,159.351685 232.437180,157.330429 233.889679,155.243668 
z"/>
<path fill="#FFF7C6" opacity="1.000000" stroke="none" 
	d="
M161.554016,300.071655 
	C162.925827,298.429474 164.646835,296.784241 166.700348,295.123596 
	C165.322983,296.761658 163.613098,298.415131 161.554016,300.071655 
z"/>
<path fill="#FFF7C6" opacity="1.000000" stroke="none" 
	d="
M97.394669,377.002197 
	C98.492821,375.102020 99.940544,373.175903 101.700272,371.137268 
	C100.589600,373.008606 99.166916,374.992432 97.394669,377.002197 
z"/>
<path fill="#FFF7C6" opacity="1.000000" stroke="none" 
	d="
M110.127899,358.771210 
	C110.891502,356.891754 112.004181,354.943604 113.422745,352.876099 
	C112.644745,354.738678 111.560860,356.720581 110.127899,358.771210 
z"/>
<path fill="#FFF5BD" opacity="1.000000" stroke="none" 
	d="
M428.819458,143.978027 
	C427.568634,142.440598 426.404419,140.519806 425.274475,138.252350 
	C426.507874,139.801987 427.706970,141.698318 428.819458,143.978027 
z"/>
<path fill="#FFF7C6" opacity="1.000000" stroke="none" 
	d="
M83.407257,166.034180 
	C84.793915,164.694977 86.558189,163.371872 88.663620,162.032745 
	C87.264809,163.361237 85.524841,164.705765 83.407257,166.034180 
z"/>
<path fill="#FFF7C6" opacity="1.000000" stroke="none" 
	d="
M45.411446,197.029999 
	C46.146183,195.715759 47.252529,194.410202 48.690048,193.070602 
	C47.941826,194.370621 46.862438,195.704651 45.411446,197.029999 
z"/>
<path fill="#FFF5BD" opacity="1.000000" stroke="none" 
	d="
M169.072540,444.217865 
	C170.358444,445.366852 171.588516,446.897797 172.835907,448.759033 
	C171.574371,447.592804 170.295532,446.096313 169.072540,444.217865 
z"/>
<path fill="#FFF7C6" opacity="1.000000" stroke="none" 
	d="
M77.987595,169.820419 
	C79.178772,168.514435 80.752220,167.288040 82.670189,166.045563 
	C81.466431,167.319656 79.918144,168.609833 77.987595,169.820419 
z"/>
<path fill="#FFF5BD" opacity="1.000000" stroke="none" 
	d="
M122.023209,44.236374 
	C120.491135,45.510490 118.583443,46.715553 116.325272,47.925556 
	C117.865738,46.676105 119.756668,45.421715 122.023209,44.236374 
z"/>
<path fill="#FFF7C6" opacity="1.000000" stroke="none" 
	d="
M107.546906,203.985352 
	C106.781784,205.533249 105.672493,207.118622 104.242233,208.778015 
	C105.015091,207.242310 106.108917,205.632584 107.546906,203.985352 
z"/>
<path fill="#FFF5BD" opacity="1.000000" stroke="none" 
	d="
M100.829254,57.100914 
	C99.674652,58.381565 98.157333,59.632359 96.299088,60.886192 
	C97.460960,59.616508 98.963753,58.343781 100.829254,57.100914 
z"/>
<path fill="#FFF5BD" opacity="1.000000" stroke="none" 
	d="
M166.638123,438.260986 
	C167.546173,439.466644 168.214706,440.909882 168.855576,442.701996 
	C168.018143,441.533417 167.208374,440.015991 166.638123,438.260986 
z"/>
<path fill="#FFF7C6" opacity="1.000000" stroke="none" 
	d="
M277.986481,273.173492 
	C276.788269,274.446381 275.217407,275.661774 273.306030,276.884583 
	C274.514954,275.633301 276.064392,274.374634 277.986481,273.173492 
z"/>
<path fill="#FFF7C6" opacity="1.000000" stroke="none" 
	d="
M271.955872,277.155945 
	C270.783478,278.463776 269.237274,279.719971 267.348877,280.992920 
	C268.531830,279.707855 270.056946,278.406067 271.955872,277.155945 
z"/>
<path fill="#FFF7C6" opacity="1.000000" stroke="none" 
	d="
M262.622894,283.978821 
	C261.528748,285.280609 260.073792,286.568420 258.289124,287.865112 
	C259.393616,286.570984 260.827850,285.267914 262.622894,283.978821 
z"/>
<path fill="#FFF5BD" opacity="1.000000" stroke="none" 
	d="
M200.499359,348.989624 
	C199.834656,350.640015 198.827621,352.340240 197.515259,354.171997 
	C198.192307,352.548828 199.174667,350.794159 200.499359,348.989624 
z"/>
<path fill="#FFF7C6" opacity="1.000000" stroke="none" 
	d="
M91.643417,225.029068 
	C90.931931,226.656586 89.878059,228.318359 88.516464,230.090607 
	C89.239510,228.488495 90.270271,226.775925 91.643417,225.029068 
z"/>
<path fill="#FFF7C6" opacity="1.000000" stroke="none" 
	d="
M293.957642,224.777618 
	C294.423187,223.447632 295.289185,222.178787 296.462524,220.775208 
	C295.965942,222.039902 295.162018,223.439316 293.957642,224.777618 
z"/>
<path fill="#FFF7C6" opacity="1.000000" stroke="none" 
	d="
M257.036011,288.198486 
	C256.151581,289.469849 254.899384,290.683197 253.316437,291.932526 
	C254.213211,290.692505 255.440704,289.416504 257.036011,288.198486 
z"/>
<path fill="#FFF5BD" opacity="1.000000" stroke="none" 
	d="
M84.952362,69.176605 
	C84.089745,70.452156 82.866501,71.683029 81.311569,72.936798 
	C82.183838,71.683777 83.387787,70.407852 84.952362,69.176605 
z"/>
<path fill="#FFF7C6" opacity="1.000000" stroke="none" 
	d="
M112.558929,197.984268 
	C111.881683,199.335922 110.854897,200.717545 109.512711,202.207977 
	C110.201340,200.882599 111.205360,199.448410 112.558929,197.984268 
z"/>
<path fill="#FFF7C6" opacity="1.000000" stroke="none" 
	d="
M209.097595,264.853638 
	C210.174225,263.795990 211.639725,262.777466 213.449844,261.706360 
	C212.358459,262.733459 210.922470,263.813110 209.097595,264.853638 
z"/>
<path fill="#FFF5BD" opacity="1.000000" stroke="none" 
	d="
M94.984711,61.182079 
	C94.090904,62.425610 92.840164,63.613262 91.257935,64.797470 
	C92.160225,63.571426 93.393997,62.348812 94.984711,61.182079 
z"/>
<path fill="#FFF7C6" opacity="1.000000" stroke="none" 
	d="
M81.251984,387.448059 
	C82.471191,386.560059 83.936440,385.898407 85.743164,385.280121 
	C84.555763,386.107147 83.026894,386.890778 81.251984,387.448059 
z"/>
<path fill="#FFF5BD" opacity="1.000000" stroke="none" 
	d="
M220.599426,322.992920 
	C219.904800,324.337524 218.860504,325.707825 217.495880,327.170654 
	C218.200287,325.848358 219.225006,324.433441 220.599426,322.992920 
z"/>
<path fill="#FFF7C6" opacity="1.000000" stroke="none" 
	d="
M282.938232,270.136780 
	C282.096863,271.107269 280.875122,272.011658 279.314606,272.917664 
	C280.169830,271.969727 281.363861,271.020172 282.938232,270.136780 
z"/>
<path fill="#FFF5BD" opacity="1.000000" stroke="none" 
	d="
M408.090942,372.735352 
	C408.538574,371.490448 409.340820,370.204010 410.455017,368.793518 
	C409.993134,370.010956 409.219360,371.352386 408.090942,372.735352 
z"/>
<path fill="#FFF7C6" opacity="1.000000" stroke="none" 
	d="
M145.482773,315.053528 
	C146.123505,313.976410 147.135208,312.896545 148.459595,311.722778 
	C147.799454,312.769501 146.826599,313.910126 145.482773,315.053528 
z"/>
<path fill="#FFF5BD" opacity="1.000000" stroke="none" 
	d="
M193.498138,360.010803 
	C193.169571,361.312836 192.503754,362.682129 191.534302,364.187195 
	C191.874084,362.907990 192.517487,361.493042 193.498138,360.010803 
z"/>
<path fill="#FFF5BD" opacity="1.000000" stroke="none" 
	d="
M196.535858,355.012695 
	C196.187439,356.312073 195.497955,357.667847 194.503143,359.153809 
	C194.863480,357.879059 195.529129,356.474091 196.535858,355.012695 
z"/>
<path fill="#FFF5BD" opacity="1.000000" stroke="none" 
	d="
M410.083588,112.528633 
	C409.130920,111.773331 408.174530,110.671867 407.220795,109.245560 
	C408.175598,110.007973 409.127716,111.095215 410.083588,112.528633 
z"/>
<path fill="#FFF7C6" opacity="1.000000" stroke="none" 
	d="
M94.532898,221.005386 
	C94.119164,222.224060 93.358368,223.485016 92.295555,224.865875 
	C92.724304,223.673065 93.455070,222.360367 94.532898,221.005386 
z"/>
<path fill="#FFF7C6" opacity="1.000000" stroke="none" 
	d="
M91.561874,382.069031 
	C92.267952,381.076050 93.320183,380.079559 94.692490,379.052734 
	C93.977715,380.036804 92.942863,381.051178 91.561874,382.069031 
z"/>
<path fill="#FFF5BD" opacity="1.000000" stroke="none" 
	d="
M106.869255,53.117813 
	C106.034981,54.068771 104.840744,54.984867 103.309799,55.917557 
	C104.151825,54.983749 105.330559,54.033348 106.869255,53.117813 
z"/>
<path fill="#FFF7C6" opacity="1.000000" stroke="none" 
	d="
M306.384827,197.977844 
	C306.823547,196.758713 307.614563,195.506958 308.711853,194.140961 
	C308.257782,195.332886 307.497467,196.639069 306.384827,197.977844 
z"/>
<path fill="#FFF5BD" opacity="1.000000" stroke="none" 
	d="
M54.631462,100.024551 
	C54.298512,101.015648 53.614040,102.038139 52.634773,103.168983 
	C52.986633,102.203545 53.633289,101.129738 54.631462,100.024551 
z"/>
<path fill="#FFF7C6" opacity="1.000000" stroke="none" 
	d="
M97.492500,216.996582 
	C97.163055,217.997711 96.488091,219.043610 95.510895,220.212372 
	C95.854774,219.237289 96.500877,218.139313 97.492500,216.996582 
z"/>
<path fill="#FFF7C6" opacity="1.000000" stroke="none" 
	d="
M122.489227,341.033478 
	C122.826271,340.022980 123.508492,338.963959 124.506218,337.809296 
	C124.159279,338.804108 123.496834,339.894501 122.489227,341.033478 
z"/>
<path fill="#FFF7C6" opacity="1.000000" stroke="none" 
	d="
M126.457367,336.014954 
	C126.813026,335.019073 127.515388,333.984650 128.532516,332.849213 
	C128.166199,333.824280 127.485138,334.900330 126.457367,336.014954 
z"/>
<path fill="#FFF5BD" opacity="1.000000" stroke="none" 
	d="
M214.604126,330.007690 
	C214.287003,331.006836 213.619186,332.042572 212.655579,333.184143 
	C212.990997,332.208038 213.622192,331.126160 214.604126,330.007690 
z"/>
<path fill="#FFF7C6" opacity="1.000000" stroke="none" 
	d="
M100.505356,213.001129 
	C100.172279,213.998413 99.492722,215.040375 98.513275,216.207703 
	C98.861885,215.237305 99.510391,214.141556 100.505356,213.001129 
z"/>
<path fill="#FFF7C6" opacity="1.000000" stroke="none" 
	d="
M290.009491,227.830856 
	C290.562042,226.894745 291.474670,226.018600 292.709229,225.122879 
	C292.143951,226.032486 291.256744,226.961655 290.009491,227.830856 
z"/>
<path fill="#FFF5BD" opacity="1.000000" stroke="none" 
	d="
M365.001892,64.539841 
	C363.978760,64.232048 362.916748,63.568237 361.717896,62.608269 
	C362.708405,62.936020 363.835724,63.559925 365.001892,64.539841 
z"/>
<path fill="#FFF5BD" opacity="1.000000" stroke="none" 
	d="
M369.991699,68.606171 
	C368.995789,68.247795 367.967468,67.543625 366.869598,66.523468 
	C367.853119,66.891792 368.906189,67.576088 369.991699,68.606171 
z"/>
<path fill="#FFF5BD" opacity="1.000000" stroke="none" 
	d="
M385.767395,82.897552 
	C384.761566,82.477852 383.822449,81.692062 382.808655,80.603195 
	C383.767365,81.043907 384.800720,81.787689 385.767395,82.897552 
z"/>
<path fill="#FFF5BD" opacity="1.000000" stroke="none" 
	d="
M127.974930,41.166328 
	C127.452026,41.839569 126.556908,42.425922 125.322891,42.984947 
	C125.856895,42.331562 126.729797,41.705502 127.974930,41.166328 
z"/>
<path fill="#FFF7C6" opacity="1.000000" stroke="none" 
	d="
M202.361328,269.029724 
	C202.808807,268.369659 203.602982,267.730530 204.715286,267.097290 
	C204.258286,267.752380 203.483154,268.401550 202.361328,269.029724 
z"/>
<path fill="#FFF7C6" opacity="1.000000" stroke="none" 
	d="
M186.498138,280.079346 
	C186.906326,279.414825 187.653503,278.747101 188.718109,278.069183 
	C188.302734,278.731354 187.569931,279.403748 186.498138,280.079346 
z"/>
<path fill="#FFF5BD" opacity="1.000000" stroke="none" 
	d="
M413.809540,117.985405 
	C413.094330,117.515343 412.440918,116.690895 411.760925,115.540985 
	C412.446686,116.020691 413.159027,116.825859 413.809540,117.985405 
z"/>
<path fill="#FFF5BD" opacity="1.000000" stroke="none" 
	d="
M406.346985,374.968384 
	C406.393585,374.321655 406.776733,373.637939 407.447876,372.859192 
	C407.385132,373.486542 407.034332,374.208954 406.346985,374.968384 
z"/>
<path fill="#FFF7C6" opacity="1.000000" stroke="none" 
	d="
M264.966492,282.159180 
	C264.751526,282.772552 264.187134,283.350677 263.308350,283.956238 
	C263.535004,283.363739 264.076019,282.743835 264.966492,282.159180 
z"/>
<path fill="#FFF5BD" opacity="1.000000" stroke="none" 
	d="
M415.449219,361.981628 
	C415.471375,361.330841 415.828156,360.618530 416.478394,359.788391 
	C416.442535,360.420441 416.113190,361.170288 415.449219,361.981628 
z"/>
<path fill="#FFF5BD" opacity="1.000000" stroke="none" 
	d="
M413.406494,364.965393 
	C413.445068,364.318085 413.820129,363.614441 414.489929,362.798248 
	C414.437469,363.426819 414.090210,364.167938 413.406494,364.965393 
z"/>
<path fill="#FFF5BD" opacity="1.000000" stroke="none" 
	d="
M411.797058,114.899673 
	C411.196472,114.667068 410.658203,114.103981 410.123840,113.232147 
	C410.704956,113.472000 411.282166,114.020592 411.797058,114.899673 
z"/>
<path fill="#FFF7C6" opacity="1.000000" stroke="none" 
	d="
M87.965767,384.818512 
	C88.211296,384.202057 88.805504,383.645386 89.714745,383.087830 
	C89.457993,383.684052 88.886215,384.281189 87.965767,384.818512 
z"/>
<path fill="#FFF5BD" opacity="1.000000" stroke="none" 
	d="
M411.419006,367.971191 
	C411.446045,367.321503 411.811066,366.613403 412.465118,365.781189 
	C412.421753,366.408966 412.089355,367.160889 411.419006,367.971191 
z"/>
<path fill="#FFF7C6" opacity="1.000000" stroke="none" 
	d="
M95.345764,378.992432 
	C95.485107,378.382660 95.947083,377.752106 96.718597,377.083435 
	C96.574883,377.687439 96.121628,378.329559 95.345764,378.992432 
z"/>
<path fill="#FFF5BD" opacity="1.000000" stroke="none" 
	d="
M423.634827,348.014130 
	C423.639526,347.395050 423.953461,346.696930 424.553589,345.882812 
	C424.541199,346.489563 424.242615,347.212311 423.634827,348.014130 
z"/>
<path fill="#FFF5BD" opacity="1.000000" stroke="none" 
	d="
M204.630096,343.034210 
	C204.592545,343.693634 204.208908,344.398621 203.532257,345.222534 
	C203.587509,344.587585 203.935760,343.833679 204.630096,343.034210 
z"/>
<path fill="#FFF5BD" opacity="1.000000" stroke="none" 
	d="
M246.722549,297.034454 
	C246.565781,297.652161 246.084030,298.275482 245.287537,298.912842 
	C245.447723,298.297943 245.922653,297.669006 246.722549,297.034454 
z"/>
<path fill="#FFF7C6" opacity="1.000000" stroke="none" 
	d="
M75.154335,171.866135 
	C75.359474,171.271194 75.893738,170.709991 76.733826,170.139038 
	C76.520920,170.719482 76.002190,171.309677 75.154335,171.866135 
z"/>
<path fill="#FFF7C6" opacity="1.000000" stroke="none" 
	d="
M286.039062,268.184814 
	C285.780273,268.782837 285.178253,269.319763 284.263641,269.846344 
	C284.532654,269.265259 285.114258,268.694489 286.039062,268.184814 
z"/>
<path fill="#FFF7C6" opacity="1.000000" stroke="none" 
	d="
M102.666618,210.048981 
	C102.612091,210.706467 102.207024,211.403580 101.509224,212.223877 
	C101.583015,211.594254 101.949547,210.841415 102.666618,210.048981 
z"/>
<path fill="#FFF7C6" opacity="1.000000" stroke="none" 
	d="
M205.993408,266.830933 
	C206.229401,266.212036 206.809280,265.642456 207.706268,265.084991 
	C207.461349,265.691498 206.899323,266.285889 205.993408,266.830933 
z"/>
<path fill="#FFF5BD" opacity="1.000000" stroke="none" 
	d="
M89.907593,65.132660 
	C89.704071,65.755226 89.157524,66.342239 88.297119,66.946838 
	C88.510361,66.341980 89.037468,65.719543 89.907593,65.132660 
z"/>
<path fill="#FFF5BD" opacity="1.000000" stroke="none" 
	d="
M202.113861,346.913361 
	C202.147324,347.273987 201.928452,347.716217 201.450165,348.240417 
	C201.414337,347.879913 201.637939,347.437439 202.113861,346.913361 
z"/>
<path fill="#FFF5BD" opacity="1.000000" stroke="none" 
	d="
M347.078125,52.161865 
	C346.705261,52.202061 346.252899,51.979126 345.709290,51.497410 
	C346.078278,51.458664 346.538452,51.678699 347.078125,52.161865 
z"/>
<path fill="#FFF5BD" opacity="1.000000" stroke="none" 
	d="
M406.832184,107.995163 
	C406.430206,107.964699 406.012085,107.665047 405.580505,107.099480 
	C405.983368,107.131035 406.399719,107.428497 406.832184,107.995163 
z"/>
<path fill="#FFF5BD" opacity="1.000000" stroke="none" 
	d="
M386.736725,84.077423 
	C386.462463,84.173332 386.177704,83.971489 385.818298,83.514160 
	C386.071167,83.432335 386.398682,83.606003 386.736725,84.077423 
z"/>
<path fill="#FFF7C6" opacity="1.000000" stroke="none" 
	d="
M57.249680,185.937561 
	C57.181480,185.715179 57.347832,185.427246 57.775490,185.119141 
	C57.967812,185.438995 57.783623,185.696671 57.249680,185.937561 
z"/>
<path fill="#FFF7C6" opacity="1.000000" stroke="none" 
	d="
M73.887314,172.744720 
	C73.828682,172.468994 74.073547,172.196121 74.593842,171.871918 
	C74.643120,172.129578 74.416969,172.438568 73.887314,172.744720 
z"/>
<path fill="#FFF7C6" opacity="1.000000" stroke="none" 
	d="
M34.314148,208.943939 
	C34.230099,208.739075 34.375057,208.448349 34.767265,208.094452 
	C34.988491,208.381638 34.831375,208.657242 34.314148,208.943939 
z"/>
<path fill="#FFF5BD" opacity="1.000000" stroke="none" 
	d="
M366.760162,65.911865 
	C366.510010,66.043327 366.194092,65.887817 365.762756,65.485558 
	C365.996368,65.367500 366.345367,65.496201 366.760162,65.911865 
z"/>
<path fill="#FFF5BD" opacity="1.000000" stroke="none" 
	d="
M374.251038,408.952942 
	C374.192871,408.737335 374.374023,408.468323 374.805359,408.167145 
	C374.994354,408.483856 374.805969,408.738739 374.251038,408.952942 
z"/>
<path fill="#FFF7C6" opacity="1.000000" stroke="none" 
	d="
M87.918457,230.250092 
	C88.060051,230.496002 87.910667,230.828354 87.515625,231.297882 
	C87.389130,231.068878 87.508308,230.702713 87.918457,230.250092 
z"/>
<path fill="#FFF7C6" opacity="1.000000" stroke="none" 
	d="
M86.005295,233.251953 
	C86.141853,233.507065 85.972359,233.845566 85.552032,234.328812 
	C85.433899,234.094147 85.566574,233.714737 86.005295,233.251953 
z"/>
<path fill="#FFF5BD" opacity="1.000000" stroke="none" 
	d="
M382.705078,79.958969 
	C382.439056,80.084084 382.137543,79.913132 381.730591,79.495865 
	C381.973328,79.387329 382.321472,79.525116 382.705078,79.958969 
z"/>
<path fill="#FFF7C6" opacity="1.000000" stroke="none" 
	d="
M288.003754,267.171509 
	C288.032318,267.422302 287.784698,267.675049 287.264771,267.934662 
	C287.237457,267.685486 287.482513,267.429474 288.003754,267.171509 
z"/>
<path fill="#FFF5BD" opacity="1.000000" stroke="none" 
	d="
M124.051620,43.223602 
	C124.079109,43.485630 123.821480,43.736794 123.286072,43.997757 
	C123.261040,43.742615 123.513771,43.477680 124.051620,43.223602 
z"/>
<path fill="#FFF7C6" opacity="1.000000" stroke="none" 
	d="
M29.593216,137.103821 
	C29.832197,137.333740 29.709391,137.613098 29.282454,137.995148 
	C29.193535,137.840454 29.277903,137.525620 29.593216,137.103821 
z"/>
<path fill="#FFF7C6" opacity="1.000000" stroke="none" 
	d="
M141.946304,318.754852 
	C141.838913,318.483917 142.049637,318.169586 142.523209,317.735046 
	C142.612167,317.980377 142.438278,318.345947 141.946304,318.754852 
z"/>
<path fill="#FFF5BD" opacity="1.000000" stroke="none" 
	d="
M215.617462,329.028137 
	C215.893234,329.308228 215.763306,329.597870 215.209793,329.877808 
	C214.979904,329.606049 215.121750,329.329285 215.617462,329.028137 
z"/>
<path fill="#FFF5BD" opacity="1.000000" stroke="none" 
	d="
M205.943176,341.283600 
	C206.085068,341.537323 205.932983,341.852356 205.544373,342.296143 
	C205.421631,342.064911 205.535416,341.704895 205.943176,341.283600 
z"/>
</svg>