<svg width="225" height="50" viewBox="0 0 808 108" fill="none" xmlns="http://www.w3.org/2000/svg">
<path d="M0.831055 99.2617L19.2148 29.5352C24.1953 10.541 40.4062 1.01953 67.8477 0.970703H107.325C109.132 0.970703 110.621 1.6543 111.793 3.02148C113.014 4.38867 113.624 5.97559 113.624 7.78223V99.2617C113.624 101.166 112.94 102.777 111.573 104.096C110.206 105.365 108.57 106 106.666 106H92.8965C90.8945 106 89.2344 105.365 87.916 104.096C86.6465 102.777 86.0117 101.117 86.0117 99.1152V80.6582H33.9365L29.0293 99.1152C28.541 101.117 27.4424 102.777 25.7334 104.096C24.0244 105.365 22.2178 106 20.3135 106H5.88477C3.98047 106 2.61328 105.463 1.7832 104.389C0.953125 103.266 0.538086 102.289 0.538086 101.459C0.586914 100.629 0.68457 99.8965 0.831055 99.2617ZM39.3564 59.9307H86.0117V21.6982H65.1377C60.4502 21.6982 56.3486 23.041 52.833 25.7266C49.3662 28.3633 47.0225 31.9277 45.8018 36.4199L39.3564 59.9307ZM131.785 102.188V41.375C131.785 40.25 132.139 39.3333 132.848 38.625C133.598 37.875 134.514 37.5 135.598 37.5H149.598C150.681 37.5 151.577 37.875 152.285 38.625C153.035 39.3333 153.41 40.25 153.41 41.375V45.3125C160.577 39.2708 168.202 36.25 176.285 36.25C184.41 36.25 191.014 38.7292 196.098 43.6875C201.181 48.6042 203.723 56.1458 203.723 66.3125V102.188C203.723 103.271 203.348 104.188 202.598 104.938C201.889 105.646 200.973 106 199.848 106H185.91C184.827 106 183.91 105.646 183.16 104.938C182.452 104.188 182.098 103.271 182.098 102.188V66.3125C182.098 56.3542 178.118 51.375 170.16 51.375C164.952 51.375 159.368 54.3542 153.41 60.3125V102.188C153.41 103.271 153.035 104.188 152.285 104.938C151.577 105.646 150.681 106 149.598 106H135.598C134.514 106 133.598 105.646 132.848 104.938C132.139 104.188 131.785 103.271 131.785 102.188ZM212.84 20.8926V14.4668C212.84 12.5983 213.455 11.0488 214.686 9.81836C215.916 8.58789 217.465 7.97266 219.334 7.97266H306.082C307.951 7.97266 309.5 8.58789 310.73 9.81836C311.961 11.0488 312.576 12.5983 312.576 14.4668V20.8926C312.576 22.7611 311.961 24.3105 310.73 25.541C309.5 26.7259 307.951 27.3184 306.082 27.3184H275.594V99.7109C275.594 101.488 274.956 102.992 273.68 104.223C272.449 105.408 270.945 106 269.168 106H256.248C254.471 106 252.944 105.408 251.668 104.223C250.438 102.992 249.822 101.488 249.822 99.7109V27.3184H219.334C217.465 27.3184 215.916 26.7259 214.686 25.541C213.455 24.3105 212.84 22.7611 212.84 20.8926ZM321.699 24.4375V22.3125C321.699 20.1042 322.324 18.3542 323.574 17.0625C324.866 15.7708 326.637 15.125 328.887 15.125H336.637C338.845 15.125 340.595 15.7708 341.887 17.0625C343.178 18.3125 343.824 20.0625 343.824 22.3125V24.4375C343.824 26.6458 343.178 28.3958 341.887 29.6875C340.637 30.9792 338.887 31.625 336.637 31.625H328.887C326.678 31.625 324.928 30.9792 323.637 29.6875C322.345 28.3958 321.699 26.6458 321.699 24.4375ZM321.949 102.188V42.875C321.949 41.75 322.303 40.8333 323.012 40.125C323.762 39.4167 324.678 39.0625 325.762 39.0625H339.762C340.887 39.0625 341.803 39.4375 342.512 40.1875C343.22 40.8958 343.574 41.7917 343.574 42.875V102.188C343.574 103.312 343.199 104.229 342.449 104.938C341.741 105.646 340.845 106 339.762 106H325.762C324.637 106 323.72 105.646 323.012 104.938C322.303 104.229 321.949 103.312 321.949 102.188ZM359.199 102.188V41.375C359.199 40.25 359.553 39.3333 360.262 38.625C361.012 37.875 361.928 37.5 363.012 37.5H377.012C378.137 37.5 379.053 37.875 379.762 38.625C380.47 39.3333 380.824 40.25 380.824 41.375V45.3125C383.824 42.3958 386.762 40.1667 389.637 38.625C392.553 37.0417 396.053 36.25 400.137 36.25C409.845 36.25 417.199 40.25 422.199 48.25C429.949 40.2083 437.887 36.2083 446.012 36.25C454.178 36.25 460.616 38.7083 465.324 43.625C470.074 48.5 472.449 56.0625 472.449 66.3125V102.188C472.449 103.312 472.095 104.229 471.387 104.938C470.678 105.646 469.762 106 468.637 106H454.699C453.574 106 452.637 105.646 451.887 104.938C451.178 104.188 450.824 103.271 450.824 102.188V66.3125C450.824 56.3125 447.199 51.3333 439.949 51.375C435.533 51.375 430.97 54.5625 426.262 60.9375C426.512 62.7292 426.637 64.5208 426.637 66.3125V102.188C426.637 103.312 426.262 104.229 425.512 104.938C424.803 105.646 423.908 106 422.824 106H408.887C407.762 106 406.824 105.646 406.074 104.938C405.366 104.188 405.012 103.271 405.012 102.188V66.3125C405.012 56.3125 401.387 51.3333 394.137 51.375C389.512 51.375 385.074 54.3542 380.824 60.3125V102.188C380.824 103.312 380.449 104.229 379.699 104.938C378.991 105.646 378.095 106 377.012 106H363.012C361.887 106 360.97 105.646 360.262 104.938C359.553 104.229 359.199 103.312 359.199 102.188ZM487.824 20.25C487.824 19.125 488.178 18.2083 488.887 17.5C489.637 16.75 490.553 16.375 491.637 16.375H505.637C506.72 16.375 507.616 16.75 508.324 17.5C509.074 18.2083 509.449 19.125 509.449 20.25V39.4375C516.199 37.3125 522.22 36.25 527.512 36.25C537.762 36.25 545.908 39.3125 551.949 45.4375C557.991 51.5208 561.012 60.3125 561.012 71.8125C561.012 95.4375 547.783 107.25 521.324 107.25C515.283 107.25 509.012 106.583 502.512 105.25C496.053 103.875 491.158 102.208 487.824 100.25V20.25ZM509.449 53.875V90.75C513.033 91.7083 517.595 92.1875 523.137 92.1875C528.678 92.1875 532.658 90.5833 535.074 87.375C537.533 84.1667 538.762 78.9792 538.762 71.8125C538.762 64.6458 537.553 59.4583 535.137 56.25C532.762 53 528.72 51.375 523.012 51.375C519.345 51.375 514.824 52.2083 509.449 53.875ZM578.324 98.125C571.908 92.0417 568.699 83.2917 568.699 71.875C568.699 60.4167 571.928 51.625 578.387 45.5C584.845 39.3333 593.803 36.25 605.262 36.25C616.72 36.25 625.658 39.25 632.074 45.25C638.491 51.2083 641.699 59.7708 641.699 70.9375V74.5C641.699 75.625 641.324 76.5625 640.574 77.3125C639.866 78.0208 638.949 78.375 637.824 78.375H590.762C591.178 83.5 592.637 87.2292 595.137 89.5625C597.678 91.8958 601.72 93.0625 607.262 93.0625C612.803 93.0625 616.595 91.8125 618.637 89.3125C620.678 86.8125 623.199 85.5417 626.199 85.5H635.512C636.637 85.5 637.553 85.875 638.262 86.625C639.012 87.3333 639.387 88.25 639.387 89.375C639.387 101.333 627.991 107.292 605.199 107.25C593.699 107.25 584.741 104.208 578.324 98.125ZM590.637 65.1875H619.699C619.283 55.3542 614.449 50.4375 605.199 50.4375C595.991 50.4375 591.137 55.3542 590.637 65.1875ZM700.574 53.375L690.949 53C685.324 53 679.949 56.0833 674.824 62.25V102.188C674.824 103.312 674.449 104.229 673.699 104.938C672.991 105.646 672.095 106 671.012 106H657.012C655.887 106 654.97 105.646 654.262 104.938C653.553 104.229 653.199 103.312 653.199 102.188V41.375C653.199 40.25 653.553 39.3333 654.262 38.625C655.012 37.875 655.928 37.5 657.012 37.5H671.012C672.137 37.5 673.053 37.875 673.762 38.625C674.47 39.3333 674.824 40.25 674.824 41.375V45.3125C679.074 42.2292 683.158 39.9583 687.074 38.5C691.033 37 696.199 36.25 702.574 36.25C703.699 36.25 704.616 36.625 705.324 37.375C706.074 38.0833 706.449 38.9792 706.449 40.0625V49.5625C706.449 50.6875 706.074 51.6042 705.324 52.3125C704.616 53.0208 703.699 53.375 702.574 53.375H700.574Z" fill="#3B5700"/>
<circle cx="777.5" cy="70.5" r="30.5" fill="#FF8A00"/>
</svg>
